<?xml version="1.0" standalone="no"?>
<!DOCTYPE svg PUBLIC "-//W3C//DTD SVG 20010904//EN"
 "http://www.w3.org/TR/2001/REC-SVG-20010904/DTD/svg10.dtd">
<svg version="1.0" xmlns="http://www.w3.org/2000/svg"
 width="329.000000pt" height="358.000000pt" viewBox="0 0 329.000000 358.000000"
 preserveAspectRatio="xMidYMid meet">
<metadata>
Created by potrace 1.16, written by Peter Selinger 2001-2019
</metadata>
<g transform="translate(0.000000,358.000000) scale(0.100000,-0.100000)"
fill="#000000" stroke="none">
<path d="M1471 3566 c-82 -29 -150 -120 -151 -199 0 -117 97 -206 236 -215 95
-6 163 16 220 73 105 105 71 266 -71 331 -57 27 -174 32 -234 10z"/>
<path d="M1134 2362 c-243 -416 -438 -758 -434 -760 5 -2 130 62 280 141 l272
144 186 333 185 332 130 -131 c72 -72 133 -131 136 -131 11 0 271 135 271 141
0 6 -526 628 -563 666 l-22 23 -441 -758z"/>
<path d="M1824 2143 l-402 -197 -30 -62 -31 -62 -368 -192 c-202 -107 -380
-201 -394 -211 -26 -18 -233 -382 -227 -398 2 -4 264 115 583 266 l580 274 45
81 45 81 238 118 c131 66 244 119 251 119 9 0 505 -531 608 -651 17 -19 19
-19 158 51 127 64 140 73 128 88 -24 30 -730 836 -757 864 l-26 27 -401 -196z"/>
<path d="M251 678 c-5 -13 -52 -125 -105 -250 -53 -125 -96 -230 -96 -233 0
-3 21 -5 46 -3 l46 3 32 78 31 78 108 -3 108 -3 33 -75 32 -75 47 -3 c26 -2
47 0 47 3 0 4 -48 119 -106 256 l-106 249 -54 0 c-47 0 -56 -3 -63 -22z m149
-275 c0 -2 -40 -3 -90 -3 l-89 0 28 63 c15 34 34 80 41 102 7 22 15 44 17 48
4 6 93 -196 93 -210z"/>
<path d="M735 463 c-55 -130 -103 -245 -107 -255 -7 -16 -2 -18 41 -18 l48 0
30 78 30 77 110 3 109 3 33 -81 32 -80 49 0 c44 0 49 2 42 18 -4 10 -52 125
-107 255 l-100 237 -55 0 -55 0 -100 -237z m198 45 l45 -108 -90 0 c-49 0 -88
3 -86 8 2 4 21 53 43 108 22 56 41 101 41 100 1 0 22 -49 47 -108z"/>
<path d="M1240 445 l0 -255 45 0 45 0 0 255 0 255 -45 0 -45 0 0 -255z"/>
<path d="M1423 693 c2 -5 53 -122 113 -260 l109 -253 52 0 53 0 49 102 49 103
17 -40 c9 -22 30 -68 46 -103 l28 -63 52 3 52 3 119 248 c65 137 118 253 118
258 0 6 -22 9 -50 7 l-51 -3 -51 -110 c-28 -60 -69 -154 -93 -207 l-42 -97
-45 112 -45 112 43 87 c24 48 44 92 44 98 0 5 -23 10 -50 10 -50 0 -51 -1 -69
-40 l-18 -40 -18 40 c-18 39 -19 40 -71 40 l-53 0 34 -80 c19 -44 39 -88 44
-98 8 -15 1 -41 -34 -118 -25 -55 -45 -106 -45 -113 0 -22 -15 -2 -28 37 -6
18 -44 109 -83 202 l-72 170 -54 0 c-30 0 -52 -3 -50 -7z"/>
<path d="M2371 458 c-57 -134 -106 -249 -108 -256 -4 -10 6 -12 43 -10 l48 3
32 75 31 75 109 0 108 0 32 -75 31 -75 50 -3 51 -3 -107 253 -108 253 -55 3
-54 3 -103 -243z m200 49 c22 -53 39 -100 39 -102 0 -3 -38 -5 -85 -5 -47 0
-85 2 -85 4 0 2 18 49 40 104 22 54 40 106 41 113 0 11 2 11 6 -1 3 -8 23 -59
44 -113z"/>
<path d="M2766 688 c4 -7 52 -74 106 -149 l98 -137 0 -111 0 -111 50 0 50 0 0
113 0 113 110 143 c61 79 110 145 110 147 0 2 -24 4 -54 4 l-53 0 -80 -119
-80 -119 -77 119 -78 119 -55 0 c-41 0 -52 -3 -47 -12z"/>
</g>
</svg>
