<?xml version="1.0" standalone="no"?>
<!DOCTYPE svg PUBLIC "-//W3C//DTD SVG 20010904//EN"
 "http://www.w3.org/TR/2001/REC-SVG-20010904/DTD/svg10.dtd">
<svg version="1.0" xmlns="http://www.w3.org/2000/svg"
 width="225.000000pt" height="225.000000pt" viewBox="0 0 225.000000 225.000000"
 preserveAspectRatio="xMidYMid meet">

<g transform="translate(0.000000,225.000000) scale(0.100000,-0.100000)"
fill="#000000" stroke="none">
<path d="M0 1125 l0 -1125 1125 0 1125 0 0 1125 0 1125 -1125 0 -1125 0 0
-1125z m478 563 c20 0 22 -5 22 -49 0 -27 -3 -49 -7 -49 -5 1 -17 20 -28 43
-33 68 -91 76 -122 16 -17 -32 -16 -187 0 -219 9 -19 22 -26 49 -28 43 -4 75
22 85 68 9 49 23 34 23 -25 0 -30 -4 -55 -10 -55 -5 0 -10 4 -10 9 0 6 -17 3
-37 -5 -70 -30 -142 -1 -174 69 -24 53 -24 101 1 154 27 61 71 86 135 78 28
-3 60 -6 73 -7z m1180 -35 c13 -26 4 -43 -23 -43 -27 0 -40 26 -24 46 16 19
37 17 47 -3z m-745 -84 c6 -9 7 -24 4 -33 -9 -24 -46 -20 -56 6 l-8 22 -12
-21 c-6 -12 -11 -49 -11 -82 0 -54 2 -60 23 -64 12 -2 -9 -4 -48 -4 -38 -1
-62 1 -52 4 14 4 17 17 17 84 0 64 -3 79 -15 79 -8 0 -15 5 -15 10 0 6 20 10
45 10 25 0 45 -5 45 -11 0 -5 10 -3 23 6 26 18 46 16 60 -6z m217 1 c16 -16
20 -33 20 -94 0 -63 3 -75 18 -79 9 -3 -12 -5 -48 -5 -36 0 -57 2 -47 5 14 4
17 16 17 78 0 87 -15 110 -49 74 -28 -31 -31 -145 -3 -152 9 -3 -12 -5 -48 -5
-36 0 -57 2 -47 5 14 4 17 17 17 88 0 71 -3 84 -17 88 -10 3 3 5 30 6 26 0 47
-4 47 -9 0 -6 12 -4 28 4 37 21 58 20 82 -4z m-440 -10 c16 -16 20 -33 20 -92
0 -65 1 -70 15 -52 8 10 15 14 15 7 0 -14 -27 -43 -41 -43 -6 0 -19 4 -29 10
-12 6 -28 6 -49 -1 -38 -14 -87 3 -96 33 -12 35 20 67 75 74 39 5 50 11 50 24
0 36 -12 50 -42 50 -25 0 -28 -3 -19 -14 17 -20 2 -48 -23 -44 -27 4 -33 38
-10 55 29 21 110 17 134 -7z m645 -6 c14 -15 25 -35 25 -45 0 -16 -8 -19 -60
-19 -53 0 -60 -2 -60 -19 0 -41 19 -71 44 -71 25 0 33 6 61 45 11 16 14 17 15
4 0 -22 -36 -58 -65 -65 -31 -8 -81 12 -100 40 -28 39 -15 113 24 143 30 23
89 16 116 -13z m179 10 c21 -21 20 -67 -2 -87 -9 -8 -37 -17 -61 -19 -69 -5
-65 -28 5 -28 66 0 94 -18 94 -61 0 -36 -42 -85 -80 -93 -67 -13 -132 43 -96
82 10 12 12 22 6 32 -14 22 -12 47 6 65 13 12 14 19 5 28 -16 16 -14 58 6 79
21 23 95 25 117 2z m51 -3 c0 -23 -23 -24 -35 -1 -10 19 -9 21 12 18 13 -2 23
-9 23 -17z m105 -70 c0 -77 2 -90 18 -94 9 -3 -14 -5 -53 -5 -38 0 -62 2 -52
5 14 4 17 17 17 82 0 46 -5 82 -12 89 -9 9 -2 12 35 12 l47 0 0 -89z m184 58
c41 -49 35 -59 -34 -59 -58 0 -60 -1 -60 -26 0 -37 18 -64 42 -64 25 0 58 27
58 47 0 7 5 13 10 13 17 0 11 -17 -14 -47 -19 -22 -32 -28 -64 -28 -74 0 -117
69 -88 140 17 40 40 54 88 55 28 0 42 -7 62 -31z m-1458 -329 c18 -55 34 -89
38 -80 3 8 19 51 34 95 l29 80 53 3 c35 2 50 0 45 -8 -3 -6 -11 -8 -16 -5 -5
4 -9 -50 -9 -134 0 -121 2 -141 16 -141 8 0 12 -4 9 -10 -3 -5 -31 -10 -61
-10 -30 0 -54 5 -54 10 0 6 7 10 15 10 13 0 15 21 14 133 0 72 -3 128 -5 122
-2 -5 -24 -66 -48 -135 -24 -68 -48 -126 -53 -127 -6 -2 -32 58 -59 134 l-49
138 -3 -110 c-3 -124 2 -155 24 -155 8 0 12 -4 9 -10 -8 -12 -75 -13 -75 -1 0
5 7 11 15 15 22 8 22 266 0 266 -8 0 -15 5 -15 10 0 7 22 10 57 8 l56 -3 33
-95z m484 -45 c0 -90 4 -145 10 -145 6 0 10 -4 10 -10 0 -5 -24 -10 -54 -10
-30 0 -58 5 -61 10 -3 6 1 10 9 10 14 0 16 20 16 139 0 124 -2 140 -17 144
-10 3 6 5 35 6 l52 1 0 -145z m120 0 c0 -122 2 -145 15 -145 8 0 15 -4 15 -10
0 -5 -24 -10 -54 -10 -30 0 -58 5 -61 10 -3 6 1 10 9 10 14 0 16 20 16 139 0
124 -2 140 -17 144 -10 3 3 5 30 6 l47 1 0 -145z m-253 20 c11 -8 26 -28 31
-45 l11 -30 -60 0 -60 0 3 -42 c3 -40 5 -43 36 -46 27 -3 35 2 50 27 19 35 33
41 25 11 -10 -37 -54 -63 -97 -57 -57 8 -81 37 -81 98 0 43 4 54 28 75 32 28
82 32 114 9z m454 -14 c79 -79 -8 -204 -112 -161 -40 17 -59 46 -59 93 0 88
108 131 171 68z m119 12 c0 -15 1 -15 18 0 26 24 88 22 102 -2 5 -11 10 -51
10 -90 0 -56 3 -71 15 -71 8 0 15 -4 15 -10 0 -5 -25 -10 -55 -10 -30 0 -55 5
-55 10 0 6 5 10 10 10 6 0 10 33 10 80 0 73 -2 80 -19 80 -32 0 -51 -38 -51
-102 0 -46 3 -58 16 -58 8 0 12 -4 9 -10 -3 -5 -28 -10 -55 -10 -27 0 -52 5
-55 10 -3 6 1 10 9 10 13 0 16 14 16 80 0 64 -3 80 -15 80 -8 0 -15 5 -15 10
0 6 20 10 45 10 35 0 45 -4 45 -17z m-950 -243 c0 -5 -4 -10 -10 -10 -6 0 -10
-45 -10 -114 0 -94 3 -117 18 -134 26 -32 63 -37 95 -12 27 21 27 23 27 141 0
73 -4 119 -10 119 -5 0 -10 5 -10 10 0 6 16 10 35 10 36 0 47 -13 20 -24 -12
-4 -15 -26 -15 -110 0 -114 -9 -147 -46 -167 -34 -18 -108 -15 -139 5 -37 24
-45 54 -45 172 0 86 -3 104 -15 104 -8 0 -15 5 -15 10 0 6 27 10 60 10 33 0
60 -4 60 -10z m1528 -110 c48 0 72 -4 63 -9 -12 -8 -11 -16 5 -55 l19 -45 17
32 c21 38 23 64 6 70 -7 3 5 6 27 6 30 0 36 -2 23 -9 -9 -6 -37 -61 -63 -122
-59 -141 -69 -158 -99 -158 -30 0 -42 28 -21 49 13 13 19 13 35 3 18 -11 21
-9 30 13 14 36 15 30 -27 128 -34 80 -39 87 -65 87 l-28 0 0 -80 c0 -79 5 -91
28 -68 7 7 12 8 12 2 0 -18 -24 -34 -50 -34 -42 0 -50 17 -50 102 0 66 -3 78
-16 78 -11 0 -4 9 17 23 20 14 37 36 44 57 l10 35 3 -52 3 -53 77 0z m-1023
60 c0 -18 -6 -26 -23 -28 -24 -4 -38 18 -28 44 3 9 15 14 28 12 17 -2 23 -10
23 -28z m830 0 c0 -18 -6 -26 -23 -28 -24 -4 -38 18 -28 44 3 9 15 14 28 12
17 -2 23 -10 23 -28z m-978 -58 c20 -12 33 -60 33 -118 0 -30 5 -54 10 -54 6
0 10 -4 10 -10 0 -5 -25 -10 -55 -10 -30 0 -55 5 -55 10 0 6 5 10 10 10 14 0
13 147 -2 156 -6 4 -21 -4 -35 -20 -18 -21 -23 -39 -23 -82 0 -41 4 -54 15
-54 8 0 15 -4 15 -10 0 -6 -27 -10 -62 -10 -55 1 -61 2 -45 14 13 11 17 29 17
89 0 64 -3 76 -17 80 -10 3 3 5 30 6 26 0 47 -4 47 -9 0 -6 12 -4 28 4 30 17
61 20 79 8z m496 -3 c21 -9 57 -56 57 -73 0 -3 -27 -6 -60 -6 l-60 0 0 -39 c0
-22 6 -44 15 -51 21 -18 64 -4 77 25 6 14 15 25 20 25 14 0 -20 -57 -37 -64
-36 -13 -84 -6 -112 18 -23 20 -28 32 -28 71 0 40 5 51 33 76 35 31 57 35 95
18z m235 -15 c7 -46 -52 -55 -61 -9 -5 31 1 37 33 33 17 -2 26 -10 28 -24z
m142 -13 l0 -34 -21 27 c-26 33 -79 37 -79 7 0 -20 8 -24 68 -36 38 -8 57 -41
43 -78 -14 -37 -35 -47 -90 -45 -51 2 -51 3 -51 35 0 18 5 33 10 33 6 0 10 -7
10 -15 0 -21 45 -48 70 -40 30 10 26 43 -7 50 -55 11 -78 29 -81 62 -5 48 26
74 83 71 44 -3 45 -4 45 -37z m-720 -56 c0 -69 3 -85 15 -85 8 0 15 -4 15 -10
0 -6 -27 -10 -60 -10 -33 0 -60 4 -60 10 0 6 7 10 15 10 12 0 15 15 15 79 0
67 -3 80 -17 84 -10 3 3 5 30 6 l47 1 0 -85z m114 77 c-7 -5 -4 -22 11 -56
l22 -49 16 42 c21 52 21 58 0 64 -10 3 -1 5 21 6 35 1 37 -1 25 -15 -8 -9 -28
-51 -46 -93 -17 -41 -36 -77 -41 -79 -5 -1 -27 38 -48 87 -22 50 -46 92 -54
94 -8 3 12 5 45 6 33 0 55 -3 49 -7z m376 -3 c0 -5 5 -7 12 -3 8 5 9 2 3 -12
-5 -10 -11 -47 -13 -81 -3 -58 -2 -63 17 -63 12 0 21 -4 21 -10 0 -6 -28 -10
-65 -10 -37 0 -65 4 -65 10 0 6 7 10 15 10 12 0 15 15 15 79 0 67 -3 80 -17
84 -10 3 3 5 30 6 27 1 47 -3 47 -10z m340 -74 c0 -69 3 -85 15 -85 8 0 15 -4
15 -10 0 -6 -27 -10 -60 -10 -33 0 -60 4 -60 10 0 6 7 10 15 10 12 0 15 15 15
79 0 67 -3 80 -17 84 -10 3 3 5 30 6 l47 1 0 -85z"/>
<path d="M597 1473 c-14 -13 -7 -64 9 -70 21 -8 44 21 44 54 0 17 -6 23 -23
23 -13 0 -27 -3 -30 -7z"/>
<path d="M1252 1558 c-22 -22 -14 -48 13 -48 21 0 25 5 25 30 0 31 -17 39 -38
18z"/>
<path d="M1434 1557 c-3 -8 -4 -30 -2 -49 2 -25 8 -33 23 -33 17 0 20 7 20 45
0 35 -4 45 -18 48 -9 2 -20 -3 -23 -11z"/>
<path d="M1394 1343 c-13 -52 62 -72 112 -30 43 38 28 57 -45 57 -57 0 -61 -1
-67 -27z"/>
<path d="M1767 1564 c-4 -4 -7 -18 -7 -31 0 -18 5 -23 26 -23 22 0 25 4 22 27
-3 27 -26 41 -41 27z"/>
<path d="M677 1193 c-4 -3 -7 -19 -7 -35 0 -23 4 -28 25 -28 19 0 25 5 25 23
0 33 -26 57 -43 40z"/>
<path d="M1112 1191 c-9 -5 -12 -29 -10 -82 3 -71 4 -74 28 -74 24 0 25 3 28
74 3 69 -4 91 -28 91 -3 0 -11 -4 -18 -9z"/>
<path d="M1167 824 c-4 -4 -7 -18 -7 -31 0 -18 5 -23 26 -23 22 0 25 4 22 27
-3 27 -26 41 -41 27z"/>
</g>
</svg>
