<svg id="svg" version="1.1" xmlns="http://www.w3.org/2000/svg" xmlns:xlink="http://www.w3.org/1999/xlink" width="400" height="400" viewBox="0, 0, 400,400"><g id="svgg"><path id="path0" d="M9.200 75.980 C 8.546 76.406,8.254 165.767,8.900 168.068 C 9.111 168.823,9.552 169.214,10.403 169.401 C 11.065 169.546,11.791 170.009,12.015 170.429 C 12.240 170.848,12.554 171.173,12.712 171.149 C 13.828 170.981,14.800 171.288,14.800 171.810 C 14.800 172.145,15.261 172.595,15.824 172.809 C 16.387 173.023,16.739 173.375,16.605 173.592 C 16.469 173.812,17.075 174.098,17.981 174.243 C 18.961 174.400,19.600 174.719,19.600 175.051 C 19.600 175.353,19.960 175.600,20.400 175.600 C 20.933 175.600,21.200 175.867,21.200 176.400 C 21.200 177.067,21.467 177.200,22.800 177.200 C 24.133 177.200,24.400 177.333,24.400 178.000 C 24.400 178.533,24.667 178.800,25.200 178.800 C 25.733 178.800,26.000 179.067,26.000 179.600 C 26.000 180.187,26.267 180.400,27.000 180.400 C 27.569 180.400,27.957 180.608,27.900 180.882 C 27.845 181.147,27.980 181.396,28.200 181.436 C 29.511 181.671,30.400 182.166,30.400 182.659 C 30.400 182.970,30.715 183.343,31.100 183.488 C 31.485 183.632,32.010 184.032,32.268 184.375 C 32.731 184.994,32.890 185.053,34.353 185.150 C 34.768 185.178,35.201 185.560,35.316 186.000 C 35.431 186.440,35.793 186.800,36.120 186.800 C 36.447 186.800,36.814 187.060,36.936 187.378 C 37.058 187.696,37.797 188.076,38.579 188.222 C 39.415 188.379,40.000 188.723,40.000 189.057 C 40.000 189.369,40.315 189.744,40.700 189.890 C 41.085 190.036,41.647 190.399,41.948 190.697 C 42.250 190.995,43.012 191.342,43.642 191.468 C 44.272 191.594,44.682 191.868,44.553 192.076 C 44.425 192.284,44.681 192.548,45.123 192.664 C 45.565 192.779,46.016 193.217,46.126 193.637 C 46.274 194.203,46.684 194.400,47.716 194.400 C 48.770 194.400,49.157 194.594,49.316 195.200 C 49.431 195.640,49.800 196.000,50.136 196.000 C 50.471 196.000,50.860 196.360,51.000 196.800 C 51.140 197.240,51.472 197.600,51.738 197.600 C 52.004 197.600,52.530 197.960,52.907 198.400 C 53.284 198.840,54.044 199.200,54.596 199.200 C 55.333 199.200,55.600 199.413,55.600 200.000 C 55.600 200.584,55.867 200.800,56.587 200.800 C 57.262 200.800,57.508 200.975,57.363 201.351 C 57.218 201.731,57.593 201.985,58.571 202.168 C 59.370 202.318,60.173 202.777,60.409 203.217 C 60.640 203.648,61.073 204.000,61.371 204.000 C 61.670 204.000,62.012 204.253,62.130 204.562 C 62.249 204.872,62.898 205.246,63.573 205.394 C 64.248 205.542,64.800 205.907,64.800 206.205 C 64.800 206.503,65.143 206.855,65.563 206.988 C 65.983 207.121,66.427 207.494,66.550 207.815 C 66.689 208.175,67.317 208.400,68.187 208.400 C 69.333 208.400,69.600 208.551,69.600 209.200 C 69.600 209.733,69.867 210.000,70.400 210.000 C 70.841 210.000,71.200 210.267,71.200 210.595 C 71.200 210.922,71.830 211.452,72.600 211.774 C 73.370 212.096,74.000 212.548,74.000 212.780 C 74.000 213.011,74.429 213.200,74.953 213.200 C 75.570 213.200,75.981 213.482,76.116 214.000 C 76.231 214.440,76.612 214.800,76.963 214.800 C 77.313 214.800,77.600 215.067,77.600 215.392 C 77.600 215.718,78.095 216.093,78.700 216.226 C 80.578 216.637,80.859 216.781,80.600 217.200 C 80.462 217.423,80.676 217.728,81.075 217.876 C 81.474 218.025,82.039 218.479,82.330 218.884 C 82.622 219.290,83.072 219.595,83.330 219.563 C 84.522 219.416,85.200 219.650,85.200 220.210 C 85.200 220.545,85.661 220.995,86.224 221.209 C 86.787 221.423,87.137 221.779,87.000 221.999 C 86.864 222.220,87.123 222.423,87.576 222.450 C 88.029 222.478,88.580 222.545,88.800 222.600 C 89.020 222.655,89.380 222.722,89.600 222.750 C 89.820 222.778,90.000 223.058,90.000 223.373 C 90.000 223.688,90.360 224.060,90.800 224.200 C 91.240 224.340,91.600 224.701,91.600 225.003 C 91.600 225.348,92.156 225.598,93.100 225.676 C 94.271 225.773,94.574 225.954,94.482 226.500 C 94.396 227.016,94.636 227.200,95.395 227.200 C 95.962 227.200,96.529 227.470,96.655 227.800 C 97.085 228.919,99.950 228.584,100.415 227.361 C 101.136 225.463,100.730 137.000,100.000 137.000 C 99.670 137.000,99.342 136.595,99.272 136.100 C 99.190 135.522,98.868 135.200,98.372 135.200 C 97.867 135.200,97.600 134.924,97.600 134.400 C 97.600 133.733,97.333 133.600,96.000 133.600 C 94.667 133.600,94.400 133.467,94.400 132.800 C 94.400 132.267,94.133 132.000,93.600 132.000 C 93.067 132.000,92.800 131.733,92.800 131.200 C 92.800 130.725,92.533 130.400,92.144 130.400 C 91.783 130.400,91.283 130.120,91.033 129.778 C 90.642 129.242,89.938 128.957,88.700 128.831 C 88.535 128.814,88.400 128.530,88.400 128.200 C 88.400 127.870,88.227 127.600,88.016 127.600 C 87.804 127.600,87.309 127.261,86.916 126.847 C 86.522 126.432,85.630 125.971,84.933 125.822 C 84.237 125.673,83.567 125.292,83.446 124.976 C 83.324 124.659,82.949 124.400,82.613 124.400 C 82.267 124.400,82.000 124.052,82.000 123.600 C 82.000 123.013,81.733 122.800,81.000 122.800 C 80.412 122.800,80.000 122.570,80.000 122.243 C 80.000 121.631,79.159 121.200,77.967 121.200 C 77.467 121.200,77.200 120.922,77.200 120.400 C 77.200 119.900,76.933 119.600,76.488 119.600 C 76.097 119.600,75.517 119.240,75.200 118.800 C 74.883 118.360,74.225 118.000,73.739 118.000 C 73.205 118.000,72.753 117.682,72.600 117.200 C 72.460 116.760,72.019 116.400,71.620 116.400 C 71.220 116.400,70.799 116.040,70.684 115.600 C 70.569 115.160,70.181 114.800,69.821 114.800 C 69.113 114.800,66.793 113.300,66.289 112.516 C 66.118 112.250,65.370 111.918,64.626 111.778 C 63.730 111.610,63.202 111.250,63.061 110.710 C 62.920 110.173,62.636 109.978,62.224 110.135 C 61.789 110.302,61.600 110.136,61.600 109.587 C 61.600 108.935,61.325 108.800,60.000 108.800 C 58.667 108.800,58.400 108.667,58.400 108.000 C 58.400 107.560,58.142 107.200,57.827 107.200 C 57.512 107.200,57.140 106.840,57.000 106.400 C 56.838 105.890,56.395 105.600,55.776 105.600 C 55.240 105.600,54.584 105.243,54.307 104.800 C 54.032 104.360,53.512 104.000,53.150 104.000 C 52.789 104.000,52.399 103.640,52.284 103.200 C 52.124 102.587,51.738 102.400,50.637 102.400 C 49.467 102.400,49.200 102.252,49.200 101.600 C 49.200 101.067,48.933 100.800,48.400 100.800 C 47.859 100.800,47.600 100.533,47.600 99.976 C 47.600 99.523,47.425 99.261,47.211 99.393 C 46.997 99.526,46.507 99.267,46.123 98.819 C 45.739 98.370,44.835 97.893,44.113 97.757 C 43.179 97.582,42.800 97.293,42.800 96.755 C 42.800 96.267,42.518 96.000,42.000 96.000 C 41.556 96.000,41.200 95.733,41.200 95.400 C 41.200 95.070,40.855 94.800,40.433 94.800 C 39.241 94.800,38.400 94.369,38.400 93.757 C 38.400 93.271,37.647 93.003,36.700 93.153 C 36.535 93.179,36.400 92.840,36.400 92.400 C 36.400 91.752,36.133 91.600,35.000 91.600 C 33.883 91.600,33.600 91.444,33.600 90.828 C 33.600 90.332,33.278 90.010,32.700 89.928 C 32.099 89.842,31.839 89.567,31.918 89.100 C 32.013 88.529,31.736 88.400,30.418 88.400 C 29.067 88.400,28.800 88.268,28.800 87.600 C 28.800 87.067,28.533 86.800,28.000 86.800 C 27.467 86.800,27.200 86.533,27.200 86.000 C 27.200 85.358,26.933 85.200,25.847 85.200 C 24.830 85.200,24.441 85.001,24.284 84.400 C 24.159 83.921,23.738 83.600,23.237 83.600 C 22.661 83.600,22.400 83.346,22.400 82.782 C 22.400 82.333,22.175 81.994,21.900 82.030 C 20.494 82.212,19.630 81.926,19.400 81.200 C 19.260 80.760,18.953 80.400,18.717 80.400 C 18.481 80.400,18.058 80.085,17.776 79.700 C 17.495 79.315,17.078 79.000,16.849 79.000 C 16.621 79.000,16.198 78.677,15.909 78.282 C 15.621 77.887,14.956 77.532,14.431 77.492 C 13.896 77.452,13.397 77.109,13.292 76.710 C 13.188 76.313,12.731 75.998,12.253 75.995 C 11.784 75.992,11.040 75.899,10.600 75.789 C 10.160 75.679,9.530 75.765,9.200 75.980 M206.700 75.887 L 205.600 76.053 205.600 121.800 C 205.600 166.456,205.618 167.552,206.363 167.788 C 206.783 167.921,207.221 168.277,207.336 168.578 C 207.451 168.878,208.090 169.244,208.755 169.390 C 209.442 169.541,210.070 169.989,210.209 170.428 C 210.344 170.853,210.712 171.200,211.027 171.200 C 211.342 171.200,211.960 171.560,212.400 172.000 C 212.840 172.440,213.517 172.800,213.904 172.800 C 214.291 172.800,214.837 173.167,215.117 173.616 C 215.397 174.064,215.780 174.336,215.968 174.220 C 216.155 174.104,216.403 174.367,216.517 174.804 C 216.676 175.412,217.064 175.600,218.163 175.600 C 219.333 175.600,219.600 175.748,219.600 176.400 C 219.600 176.933,219.867 177.200,220.400 177.200 C 220.933 177.200,221.200 177.467,221.200 178.000 C 221.200 178.667,221.467 178.800,222.800 178.800 C 224.133 178.800,224.400 178.933,224.400 179.600 C 224.400 180.133,224.667 180.400,225.200 180.400 C 225.733 180.400,226.000 180.667,226.000 181.200 C 226.000 181.845,226.267 182.000,227.373 182.000 C 228.369 182.000,228.812 182.208,228.986 182.757 C 229.118 183.173,229.586 183.608,230.025 183.722 C 230.464 183.837,230.773 184.172,230.711 184.466 C 230.638 184.818,231.096 185.041,232.059 185.122 C 233.107 185.209,233.575 185.463,233.722 186.022 C 233.834 186.450,234.200 186.800,234.536 186.800 C 234.871 186.800,235.259 187.156,235.397 187.592 C 235.536 188.027,235.773 188.366,235.924 188.345 C 237.280 188.152,238.333 188.499,238.516 189.200 C 238.631 189.640,239.012 190.000,239.363 190.000 C 239.713 190.000,240.000 190.248,240.000 190.551 C 240.000 190.855,240.540 191.327,241.200 191.600 C 241.860 191.873,242.400 192.255,242.400 192.449 C 242.400 192.642,242.535 192.779,242.700 192.753 C 243.695 192.596,244.378 192.900,244.600 193.600 C 244.766 194.123,245.205 194.400,245.870 194.400 C 246.640 194.400,246.826 194.556,246.638 195.045 C 246.461 195.506,246.563 195.623,246.995 195.457 C 247.328 195.329,247.600 195.399,247.600 195.613 C 247.600 195.826,247.960 196.000,248.400 196.000 C 249.116 196.000,249.387 196.416,249.247 197.300 C 249.221 197.465,249.517 197.600,249.904 197.600 C 250.291 197.600,250.832 197.960,251.107 198.400 C 251.426 198.910,252.040 199.200,252.803 199.200 C 253.719 199.200,254.000 199.381,254.000 199.972 C 254.000 200.466,254.325 200.794,254.900 200.882 C 255.395 200.957,255.756 201.238,255.701 201.505 C 255.644 201.791,256.261 202.096,257.201 202.247 C 258.406 202.439,258.800 202.687,258.800 203.251 C 258.800 203.733,259.085 204.000,259.600 204.000 C 260.040 204.000,260.400 204.267,260.400 204.592 C 260.400 204.918,260.850 205.298,261.400 205.436 C 261.950 205.574,262.400 205.814,262.400 205.969 C 262.400 206.124,263.020 206.494,263.778 206.791 C 264.536 207.089,265.121 207.523,265.078 207.757 C 265.035 207.990,265.405 208.243,265.900 208.318 C 266.395 208.394,266.800 208.694,266.800 208.985 C 266.800 209.572,267.658 210.000,268.833 210.000 C 269.333 210.000,269.600 210.278,269.600 210.800 C 269.600 211.317,269.867 211.600,270.353 211.600 C 270.770 211.600,271.200 211.957,271.316 212.400 C 271.475 213.006,271.862 213.200,272.916 213.200 C 273.970 213.200,274.357 213.394,274.516 214.000 C 274.631 214.440,275.012 214.800,275.363 214.800 C 275.713 214.800,276.000 215.051,276.000 215.357 C 276.000 216.005,276.853 216.400,278.250 216.400 C 278.953 216.400,279.201 216.593,279.118 217.073 C 279.042 217.503,279.362 217.850,280.000 218.034 C 280.550 218.191,280.843 218.338,280.651 218.360 C 280.459 218.382,280.528 218.672,280.804 219.005 C 281.081 219.338,281.508 219.587,281.753 219.558 C 282.940 219.418,283.525 219.669,283.716 220.400 C 283.831 220.840,284.212 221.200,284.563 221.200 C 284.913 221.200,285.200 221.470,285.200 221.800 C 285.200 222.130,285.560 222.423,286.000 222.450 C 286.440 222.478,286.980 222.545,287.200 222.600 C 287.420 222.655,287.780 222.722,288.000 222.750 C 288.220 222.778,288.400 223.087,288.400 223.437 C 288.400 223.788,288.760 224.169,289.200 224.284 C 289.640 224.399,290.000 224.742,290.000 225.047 C 290.000 225.409,290.468 225.600,291.353 225.600 C 292.370 225.600,292.759 225.799,292.916 226.400 C 293.042 226.883,293.462 227.200,293.975 227.200 C 294.443 227.200,294.929 227.470,295.055 227.800 C 295.408 228.720,298.264 228.602,298.776 227.646 C 299.594 226.116,299.126 136.990,298.300 137.056 C 297.813 137.094,297.600 136.820,297.600 136.156 C 297.600 135.467,297.377 135.200,296.800 135.200 C 296.084 135.200,295.813 134.784,295.953 133.900 C 295.979 133.735,295.462 133.600,294.803 133.600 C 294.040 133.600,293.426 133.310,293.107 132.800 C 292.832 132.360,292.393 132.000,292.131 132.000 C 291.868 132.000,291.540 131.640,291.400 131.200 C 291.260 130.760,290.798 130.400,290.373 130.400 C 289.948 130.400,289.600 130.130,289.600 129.800 C 289.600 129.470,289.330 129.200,289.000 129.200 C 288.066 129.200,287.850 129.148,287.089 128.740 C 286.698 128.531,286.475 128.202,286.595 128.009 C 286.714 127.816,286.466 127.548,286.043 127.414 C 285.620 127.279,285.173 126.906,285.050 126.585 C 284.926 126.263,284.474 126.000,284.045 126.000 C 282.841 126.000,282.000 125.571,282.000 124.957 C 282.000 124.651,281.640 124.400,281.200 124.400 C 280.667 124.400,280.400 124.133,280.400 123.600 C 280.400 122.933,280.133 122.800,278.800 122.800 C 277.467 122.800,277.200 122.667,277.200 122.000 C 277.200 121.467,276.933 121.200,276.400 121.200 C 275.867 121.200,275.600 120.933,275.600 120.400 C 275.600 119.734,275.333 119.600,274.013 119.600 C 272.739 119.600,272.472 119.477,272.665 118.976 C 272.823 118.564,272.627 118.280,272.089 118.139 C 271.641 118.022,271.184 117.583,271.074 117.163 C 270.957 116.714,270.525 116.400,270.025 116.400 C 269.557 116.400,269.072 116.131,268.946 115.802 C 268.819 115.474,268.555 115.304,268.358 115.426 C 268.161 115.548,268.000 115.457,268.000 115.224 C 268.000 114.991,267.661 114.800,267.247 114.800 C 266.818 114.800,266.399 114.438,266.274 113.960 C 266.153 113.498,265.868 113.235,265.640 113.375 C 265.412 113.516,265.008 113.282,264.742 112.855 C 264.475 112.429,264.019 112.171,263.729 112.283 C 263.438 112.394,263.200 112.286,263.200 112.043 C 263.200 111.799,263.065 111.621,262.900 111.647 C 262.085 111.776,261.600 111.545,261.600 111.027 C 261.600 110.712,261.240 110.340,260.800 110.200 C 260.360 110.060,260.000 109.688,260.000 109.373 C 260.000 108.989,259.555 108.800,258.647 108.800 C 257.630 108.800,257.241 108.601,257.084 108.000 C 256.959 107.521,256.538 107.200,256.037 107.200 C 255.467 107.200,255.200 106.945,255.200 106.400 C 255.200 105.752,254.933 105.600,253.800 105.600 C 252.809 105.600,252.400 105.421,252.400 104.987 C 252.400 104.651,252.085 104.257,251.700 104.114 C 251.315 103.970,250.765 103.526,250.477 103.126 C 250.176 102.707,249.456 102.400,248.777 102.400 C 247.867 102.400,247.600 102.219,247.600 101.600 C 247.600 101.083,247.333 100.800,246.847 100.800 C 246.426 100.800,246.000 100.441,245.881 99.989 C 245.764 99.542,245.518 99.204,245.334 99.236 C 243.883 99.491,242.800 99.134,242.800 98.400 C 242.800 97.960,242.536 97.600,242.214 97.600 C 241.892 97.600,241.435 97.240,241.200 96.800 C 240.926 96.287,240.362 96.000,239.633 96.000 C 238.829 96.000,238.432 95.764,238.284 95.198 C 238.144 94.664,237.862 94.478,237.437 94.641 C 237.015 94.803,236.800 94.666,236.800 94.233 C 236.800 93.483,235.099 92.710,234.203 93.054 C 233.783 93.215,233.600 93.030,233.600 92.443 C 233.600 91.867,233.347 91.600,232.800 91.600 C 232.348 91.600,232.000 91.333,232.000 90.987 C 232.000 90.651,231.685 90.262,231.300 90.123 C 230.915 89.985,230.278 89.541,229.884 89.136 C 229.491 88.731,228.726 88.400,228.184 88.400 C 227.467 88.400,227.200 88.183,227.200 87.600 C 227.200 87.063,226.933 86.800,226.387 86.800 C 225.941 86.800,225.467 86.520,225.336 86.177 C 225.204 85.834,224.841 85.652,224.528 85.772 C 224.212 85.893,224.067 85.814,224.203 85.595 C 224.337 85.378,224.083 85.200,223.638 85.200 C 223.192 85.200,222.635 84.840,222.400 84.400 C 222.165 83.960,221.708 83.600,221.386 83.600 C 221.064 83.600,220.800 83.330,220.800 83.000 C 220.800 82.670,220.665 82.430,220.500 82.466 C 219.656 82.650,218.050 81.834,217.865 81.126 C 217.749 80.682,217.483 80.425,217.274 80.554 C 217.065 80.683,216.389 80.392,215.773 79.907 C 215.156 79.422,214.443 78.995,214.189 78.957 C 213.629 78.875,211.600 76.897,211.600 76.434 C 211.600 76.122,209.055 75.546,208.200 75.664 C 207.980 75.695,207.305 75.795,206.700 75.887 M107.467 241.867 C 107.096 242.237,107.129 333.611,107.500 333.553 C 108.323 333.423,108.769 333.673,108.997 334.392 C 109.136 334.827,109.373 335.166,109.524 335.145 C 110.946 334.942,112.061 335.264,111.850 335.815 C 111.707 336.187,111.888 336.535,112.307 336.695 C 112.688 336.841,113.349 337.284,113.775 337.680 C 114.202 338.076,114.869 338.400,115.257 338.400 C 116.001 338.400,118.254 340.386,118.094 340.900 C 118.042 341.065,118.320 341.200,118.711 341.200 C 119.102 341.200,119.730 341.560,120.107 342.000 C 120.484 342.440,121.244 342.800,121.796 342.800 C 122.448 342.800,122.800 343.024,122.800 343.437 C 122.800 343.788,123.160 344.169,123.600 344.284 C 124.040 344.399,124.400 344.641,124.400 344.821 C 124.400 345.001,125.029 345.376,125.798 345.654 C 126.567 345.932,127.300 346.484,127.425 346.880 C 127.563 347.313,128.041 347.600,128.627 347.600 C 129.188 347.600,129.558 347.810,129.500 348.096 C 129.445 348.369,129.985 348.766,130.699 348.978 C 131.414 349.191,132.101 349.688,132.226 350.083 C 132.351 350.477,132.812 350.800,133.251 350.800 C 133.689 350.800,133.944 350.968,133.817 351.172 C 133.461 351.749,134.388 352.249,136.000 352.350 C 136.440 352.378,136.800 352.674,136.800 353.010 C 136.800 353.345,137.261 353.795,137.824 354.009 C 138.387 354.223,138.737 354.579,138.600 354.799 C 138.464 355.020,138.723 355.223,139.176 355.250 C 139.629 355.278,140.180 355.345,140.400 355.400 C 140.620 355.455,140.959 355.523,141.153 355.550 C 141.348 355.578,141.601 355.960,141.716 356.400 C 141.831 356.840,142.212 357.200,142.563 357.200 C 142.913 357.200,143.200 357.470,143.200 357.800 C 143.200 358.219,143.622 358.400,144.600 358.400 C 145.717 358.400,146.000 358.556,146.000 359.172 C 146.000 359.668,146.322 359.990,146.900 360.072 C 147.395 360.142,147.800 360.470,147.800 360.800 C 147.800 361.205,148.289 361.440,149.300 361.524 C 150.475 361.621,150.800 361.816,150.800 362.424 C 150.800 362.933,151.075 363.200,151.600 363.200 C 152.133 363.200,152.400 363.467,152.400 364.000 C 152.400 364.667,152.667 364.800,154.000 364.800 C 155.333 364.800,155.600 364.933,155.600 365.600 C 155.600 366.133,155.867 366.400,156.400 366.400 C 156.933 366.400,157.200 366.667,157.200 367.200 C 157.200 367.866,157.467 368.000,158.787 368.000 C 160.014 368.000,160.324 368.133,160.151 368.583 C 160.002 368.972,160.272 369.253,160.961 369.426 C 161.529 369.569,161.906 369.829,161.797 370.005 C 161.633 370.271,164.968 372.543,165.600 372.596 C 166.142 372.641,166.788 373.297,166.595 373.607 C 166.476 373.801,167.027 374.081,167.821 374.230 C 168.614 374.379,169.359 374.748,169.475 375.051 C 169.591 375.353,170.026 375.600,170.443 375.600 C 170.933 375.600,171.200 375.882,171.200 376.400 C 171.200 376.917,171.467 377.200,171.953 377.200 C 172.370 377.200,172.800 377.557,172.916 378.000 C 173.076 378.613,173.462 378.800,174.563 378.800 C 175.733 378.800,176.000 378.948,176.000 379.600 C 176.000 380.195,176.267 380.400,177.043 380.400 C 177.805 380.400,178.024 380.561,177.855 381.000 C 177.729 381.330,177.799 381.623,178.013 381.650 C 178.226 381.678,178.580 381.745,178.800 381.800 C 179.020 381.855,179.458 381.923,179.773 381.950 C 180.088 381.978,180.460 382.360,180.600 382.800 C 180.740 383.240,181.068 383.600,181.331 383.600 C 181.593 383.600,182.032 383.960,182.307 384.400 C 182.619 384.899,183.240 385.200,183.957 385.200 C 184.770 385.200,185.168 385.434,185.316 386.000 C 185.441 386.479,185.862 386.800,186.363 386.800 C 186.823 386.800,187.155 387.018,187.100 387.285 C 187.045 387.551,187.675 387.943,188.500 388.155 C 189.346 388.373,190.000 388.788,190.000 389.108 C 190.000 389.420,190.360 389.769,190.800 389.884 C 191.240 389.999,191.600 390.342,191.600 390.647 C 191.600 390.951,191.960 391.200,192.400 391.200 C 192.933 391.200,193.200 391.467,193.200 392.000 C 193.200 393.094,200.144 393.244,200.561 392.159 C 200.696 391.806,200.802 371.684,200.797 347.443 L 200.786 303.370 199.893 302.092 C 199.402 301.389,198.685 300.811,198.300 300.807 C 197.869 300.803,197.600 300.493,197.600 300.000 C 197.600 299.560,197.465 299.221,197.300 299.247 C 195.794 299.485,194.471 299.113,194.284 298.400 C 194.169 297.960,193.788 297.600,193.437 297.600 C 193.067 297.600,192.800 297.265,192.800 296.800 C 192.800 296.263,192.533 296.000,191.987 296.000 C 191.541 296.000,191.079 295.750,190.962 295.445 C 190.845 295.140,190.220 294.784,189.574 294.655 C 188.891 294.518,188.400 294.165,188.400 293.810 C 188.400 293.279,187.674 292.999,186.700 293.153 C 186.535 293.179,186.400 292.840,186.400 292.400 C 186.400 291.960,186.265 291.621,186.100 291.647 C 184.759 291.859,183.669 291.506,183.484 290.800 C 183.364 290.339,182.938 290.000,182.482 290.000 C 181.972 290.000,181.709 289.750,181.744 289.300 C 181.787 288.767,181.441 288.570,180.300 288.476 C 179.125 288.379,178.800 288.184,178.800 287.576 C 178.800 287.083,178.526 286.800,178.047 286.800 C 177.626 286.800,177.200 286.441,177.081 285.989 C 176.964 285.542,176.718 285.204,176.534 285.236 C 175.192 285.472,174.094 285.134,174.144 284.500 C 174.180 284.057,173.870 283.753,173.300 283.672 C 172.714 283.589,172.400 283.269,172.400 282.755 C 172.400 282.320,172.175 281.994,171.900 282.030 C 170.506 282.211,169.600 281.948,169.600 281.363 C 169.600 281.012,169.240 280.631,168.800 280.516 C 168.360 280.401,168.000 280.077,168.000 279.796 C 168.000 279.170,167.315 278.882,165.997 278.954 C 165.312 278.991,164.929 278.756,164.773 278.204 C 164.649 277.762,164.266 277.448,163.922 277.506 C 163.575 277.566,163.203 277.254,163.086 276.806 C 162.894 276.073,162.204 275.829,160.500 275.893 C 160.225 275.903,160.000 275.571,160.000 275.156 C 160.000 274.667,159.718 274.400,159.200 274.400 C 158.667 274.400,158.400 274.133,158.400 273.600 C 158.400 272.952,158.133 272.800,157.000 272.800 C 155.867 272.800,155.600 272.648,155.600 272.000 C 155.600 271.416,155.333 271.200,154.613 271.200 C 153.903 271.200,153.689 271.033,153.853 270.606 C 154.001 270.221,153.734 269.879,153.095 269.636 C 152.553 269.430,152.000 268.977,151.867 268.631 C 151.734 268.283,151.164 268.000,150.600 268.000 C 149.916 268.000,149.086 267.468,148.104 266.400 C 147.062 265.267,146.307 264.800,145.516 264.800 C 144.814 264.800,144.400 264.587,144.400 264.227 C 144.400 263.912,144.040 263.540,143.600 263.400 C 143.160 263.260,142.800 262.888,142.800 262.573 C 142.800 262.258,142.575 261.986,142.300 261.969 C 140.984 261.889,140.407 261.581,139.070 260.244 C 138.276 259.450,137.262 258.800,136.817 258.800 C 136.371 258.800,135.782 258.440,135.507 258.000 C 135.232 257.560,134.691 257.200,134.304 257.200 C 133.867 257.200,133.600 256.897,133.600 256.400 C 133.600 255.900,133.333 255.600,132.889 255.600 C 132.498 255.600,131.870 255.240,131.493 254.800 C 131.116 254.360,130.356 254.000,129.804 254.000 C 129.067 254.000,128.800 253.787,128.800 253.200 C 128.800 252.700,128.533 252.400,128.088 252.400 C 127.697 252.400,127.117 252.040,126.800 251.600 C 126.483 251.160,125.825 250.800,125.339 250.800 C 124.808 250.800,124.353 250.483,124.203 250.008 C 124.064 249.573,123.827 249.234,123.676 249.255 C 122.862 249.371,122.428 249.117,122.197 248.389 C 122.055 247.944,121.728 247.605,121.470 247.637 C 120.267 247.785,119.677 247.536,119.484 246.800 C 119.369 246.360,118.988 246.000,118.637 246.000 C 118.287 246.000,118.000 245.832,118.000 245.627 C 118.000 245.227,116.554 244.619,115.200 244.450 C 114.980 244.423,114.800 244.130,114.800 243.800 C 114.800 243.470,114.536 243.200,114.214 243.200 C 113.892 243.200,113.435 242.840,113.200 242.400 C 112.770 241.596,108.166 241.168,107.467 241.867 " stroke="none" fill="#64b4dc" fill-rule="evenodd"></path><path id="path1" d="M99.733 7.831 C 99.600 8.177,99.065 8.623,98.545 8.821 C 98.025 9.018,97.600 9.449,97.600 9.778 C 97.600 10.154,97.370 10.287,96.976 10.135 C 96.559 9.976,96.278 10.179,96.129 10.748 C 96.007 11.217,95.748 11.623,95.553 11.650 C 95.359 11.678,95.020 11.745,94.800 11.800 C 94.580 11.855,94.130 11.922,93.800 11.950 C 93.470 11.978,93.200 12.270,93.200 12.600 C 93.200 12.933,92.844 13.200,92.400 13.200 C 91.867 13.200,91.600 13.467,91.600 14.000 C 91.600 14.579,91.333 14.800,90.633 14.800 C 89.252 14.800,88.400 15.198,88.400 15.843 C 88.400 16.149,88.019 16.400,87.553 16.400 C 86.890 16.400,86.744 16.596,86.879 17.304 C 87.038 18.135,86.928 18.195,85.500 18.059 C 84.192 17.934,83.914 18.044,83.728 18.756 C 83.601 19.238,83.184 19.600,82.753 19.600 C 82.267 19.600,82.000 19.883,82.000 20.400 C 82.000 20.933,81.733 21.200,81.200 21.200 C 80.760 21.200,80.056 21.544,79.636 21.964 C 79.216 22.384,78.541 22.796,78.136 22.879 C 77.731 22.962,77.425 23.339,77.456 23.715 C 77.496 24.210,77.204 24.400,76.405 24.400 C 75.287 24.400,74.184 25.251,74.670 25.737 C 74.815 25.882,74.474 26.000,73.913 26.000 C 73.213 26.000,72.824 26.264,72.673 26.842 C 72.552 27.305,72.233 27.611,71.965 27.522 C 71.697 27.432,71.065 27.771,70.561 28.276 C 70.004 28.832,69.391 29.095,68.998 28.944 C 68.556 28.774,68.282 28.965,68.129 29.548 C 68.004 30.026,67.585 30.400,67.174 30.400 C 66.771 30.400,65.959 30.847,65.370 31.393 C 64.781 31.938,64.130 32.280,63.923 32.152 C 63.716 32.024,63.447 32.298,63.326 32.760 C 63.201 33.238,62.782 33.600,62.353 33.600 C 61.939 33.600,61.240 33.960,60.800 34.400 C 60.360 34.840,59.730 35.200,59.400 35.200 C 59.039 35.200,58.800 35.570,58.800 36.131 C 58.800 36.932,58.637 37.038,57.629 36.890 C 56.755 36.761,56.325 36.931,55.933 37.559 C 55.644 38.021,55.091 38.400,54.704 38.400 C 54.267 38.400,54.000 38.703,54.000 39.200 C 54.000 39.722,53.733 40.000,53.233 40.000 C 52.041 40.000,51.200 40.431,51.200 41.043 C 51.200 41.349,50.849 41.600,50.420 41.600 C 49.991 41.600,49.485 41.876,49.296 42.214 C 49.107 42.552,48.423 42.977,47.776 43.160 C 47.129 43.342,46.644 43.692,46.698 43.938 C 46.751 44.185,46.346 44.499,45.798 44.636 C 45.249 44.774,44.800 45.137,44.800 45.443 C 44.800 45.750,44.474 46.000,44.075 46.000 C 43.677 46.000,42.988 46.338,42.545 46.751 C 42.101 47.164,41.347 47.626,40.869 47.778 C 40.391 47.930,40.000 48.312,40.000 48.627 C 40.000 48.942,39.640 49.200,39.200 49.200 C 38.760 49.200,37.998 49.602,37.507 50.093 C 37.016 50.584,36.341 50.989,36.007 50.993 C 35.673 50.997,35.425 51.315,35.456 51.700 C 35.491 52.150,35.228 52.400,34.718 52.400 C 34.262 52.400,33.836 52.739,33.716 53.200 C 33.559 53.801,33.170 54.000,32.153 54.000 C 31.207 54.000,30.800 54.184,30.800 54.610 C 30.800 54.945,30.332 55.398,29.759 55.615 C 29.077 55.875,28.797 56.216,28.947 56.606 C 29.154 57.146,27.986 57.468,26.666 57.236 C 26.482 57.204,26.236 57.542,26.119 57.989 C 25.995 58.463,25.574 58.800,25.107 58.800 C 24.468 58.800,24.345 59.003,24.499 59.803 C 24.657 60.630,24.591 60.725,24.128 60.340 C 23.726 60.007,23.443 59.997,23.134 60.306 C 22.897 60.543,22.454 60.642,22.151 60.526 C 21.848 60.410,21.600 60.518,21.600 60.766 C 21.600 61.014,21.150 61.422,20.600 61.673 C 20.050 61.923,19.600 62.370,19.600 62.664 C 19.600 62.959,19.240 63.200,18.800 63.200 C 18.360 63.200,17.640 63.560,17.200 64.000 C 16.760 64.440,16.146 64.800,15.836 64.800 C 14.119 64.800,12.616 68.340,13.935 69.277 C 14.340 69.565,14.795 70.301,14.947 70.914 C 15.212 71.988,16.870 73.051,17.588 72.607 C 17.765 72.498,18.003 72.767,18.117 73.204 C 18.231 73.642,18.600 74.000,18.936 74.000 C 19.271 74.000,19.660 74.360,19.800 74.800 C 19.989 75.395,20.405 75.600,21.427 75.600 C 22.533 75.600,22.800 75.755,22.800 76.400 C 22.800 76.897,23.067 77.200,23.504 77.200 C 23.891 77.200,24.443 77.578,24.732 78.039 C 25.079 78.596,25.524 78.809,26.051 78.671 C 26.620 78.522,26.971 78.739,27.287 79.431 C 27.530 79.964,28.039 80.400,28.418 80.400 C 28.797 80.400,29.201 80.760,29.316 81.200 C 29.468 81.783,29.862 82.000,30.763 82.000 C 31.607 82.000,32.000 82.194,32.000 82.613 C 32.000 82.949,32.315 83.338,32.700 83.477 C 33.085 83.615,33.722 84.059,34.116 84.464 C 34.509 84.869,35.274 85.200,35.816 85.200 C 36.450 85.200,36.800 85.427,36.800 85.837 C 36.800 86.188,37.160 86.569,37.600 86.684 C 38.040 86.799,38.400 87.140,38.400 87.442 C 38.400 87.773,39.035 88.092,40.000 88.246 C 41.063 88.416,41.600 88.709,41.600 89.118 C 41.600 89.456,41.711 89.622,41.848 89.486 C 42.151 89.182,43.200 90.179,43.200 90.771 C 43.200 91.007,43.560 91.200,44.000 91.200 C 44.440 91.200,45.160 91.560,45.600 92.000 C 46.040 92.440,46.649 92.800,46.953 92.800 C 47.258 92.800,47.601 93.160,47.716 93.600 C 47.831 94.040,48.212 94.400,48.563 94.400 C 48.913 94.400,49.574 94.774,50.031 95.231 C 50.488 95.688,51.124 95.961,51.444 95.839 C 51.814 95.696,52.163 95.976,52.403 96.608 C 52.610 97.153,53.055 97.600,53.390 97.600 C 53.726 97.600,54.360 97.960,54.800 98.400 C 55.240 98.840,55.960 99.200,56.400 99.200 C 56.850 99.200,57.200 99.467,57.200 99.810 C 57.200 100.145,57.650 100.591,58.200 100.800 C 58.750 101.009,59.200 101.350,59.200 101.558 C 59.200 101.766,59.739 102.055,60.398 102.199 C 61.056 102.344,61.746 102.732,61.930 103.061 C 62.280 103.686,63.304 104.355,65.516 105.401 C 66.240 105.744,66.736 106.180,66.618 106.370 C 66.501 106.560,66.688 106.825,67.035 106.958 C 67.950 107.309,67.964 107.295,67.766 106.200 C 67.666 105.650,67.758 105.200,67.969 105.200 C 68.181 105.200,68.289 105.540,68.209 105.955 C 68.049 106.784,69.632 108.400,70.603 108.400 C 70.933 108.400,71.200 108.757,71.200 109.200 C 71.200 109.867,71.467 110.000,72.800 110.000 C 74.133 110.000,74.400 110.133,74.400 110.800 C 74.400 111.333,74.667 111.600,75.200 111.600 C 75.733 111.600,76.000 111.867,76.000 112.400 C 76.000 113.048,76.267 113.200,77.400 113.200 C 78.672 113.200,79.005 113.499,78.847 114.500 C 78.821 114.665,79.139 114.800,79.553 114.800 C 79.970 114.800,80.400 115.157,80.516 115.600 C 80.676 116.213,81.062 116.400,82.163 116.400 C 83.333 116.400,83.600 116.548,83.600 117.200 C 83.600 117.733,83.867 118.000,84.400 118.000 C 84.933 118.000,85.200 118.267,85.200 118.800 C 85.200 119.318,85.467 119.600,85.957 119.600 C 86.374 119.600,86.814 119.860,86.936 120.178 C 87.058 120.496,87.781 120.873,88.542 121.016 C 89.429 121.182,89.998 121.549,90.126 122.038 C 90.235 122.457,90.593 122.800,90.920 122.800 C 91.247 122.800,91.614 123.060,91.736 123.378 C 91.858 123.696,92.596 124.076,93.375 124.222 C 94.155 124.368,94.686 124.660,94.556 124.871 C 94.426 125.081,94.692 125.351,95.147 125.470 C 95.601 125.589,96.082 126.027,96.214 126.443 C 96.388 126.992,96.831 127.200,97.827 127.200 C 98.933 127.200,99.200 127.355,99.200 128.000 C 99.200 128.533,99.467 128.800,100.000 128.800 C 100.533 128.800,100.800 129.067,100.800 129.600 C 100.800 130.821,106.597 130.821,106.916 129.600 C 107.031 129.160,107.412 128.800,107.763 128.800 C 108.133 128.800,108.400 128.465,108.400 128.000 C 108.400 127.348,108.667 127.200,109.837 127.200 C 110.938 127.200,111.324 127.013,111.484 126.400 C 111.600 125.957,112.030 125.600,112.447 125.600 C 112.861 125.600,113.200 125.330,113.200 125.000 C 113.200 124.459,113.675 124.222,114.500 124.353 C 114.665 124.379,114.800 124.137,114.800 123.815 C 114.800 123.472,115.460 123.053,116.400 122.800 C 117.340 122.547,118.000 122.128,118.000 121.785 C 118.000 121.463,118.339 121.200,118.753 121.200 C 119.170 121.200,119.600 120.843,119.716 120.400 C 119.867 119.822,120.262 119.600,121.136 119.600 C 121.995 119.600,122.420 119.368,122.600 118.800 C 122.740 118.360,123.105 118.000,123.413 118.000 C 123.720 118.000,124.165 117.640,124.400 117.200 C 124.686 116.666,125.238 116.400,126.061 116.400 C 127.136 116.400,127.270 116.281,127.115 115.469 C 126.963 114.674,127.074 114.563,127.869 114.715 C 128.607 114.856,128.800 114.717,128.800 114.047 C 128.800 113.326,129.037 113.200,130.400 113.200 C 131.733 113.200,132.000 113.067,132.000 112.400 C 132.000 111.867,132.267 111.600,132.800 111.600 C 133.240 111.600,133.960 111.240,134.400 110.800 C 134.840 110.360,135.458 110.000,135.773 110.000 C 136.088 110.000,136.460 109.640,136.600 109.200 C 136.756 108.708,137.205 108.400,137.765 108.400 C 138.266 108.400,139.002 108.040,139.400 107.600 C 139.798 107.160,140.366 106.800,140.662 106.800 C 140.958 106.800,141.200 106.551,141.200 106.247 C 141.200 105.942,141.560 105.599,142.000 105.484 C 142.474 105.360,142.800 104.938,142.800 104.450 C 142.800 103.881,142.986 103.697,143.401 103.856 C 144.326 104.211,146.000 103.655,146.000 102.992 C 146.000 102.667,146.360 102.400,146.800 102.400 C 147.333 102.400,147.600 102.133,147.600 101.600 C 147.600 100.981,147.867 100.800,148.777 100.800 C 149.456 100.800,150.176 100.493,150.477 100.074 C 150.765 99.674,151.315 99.230,151.700 99.086 C 152.085 98.943,152.400 98.549,152.400 98.213 C 152.400 97.794,152.793 97.600,153.637 97.600 C 154.538 97.600,154.932 97.383,155.084 96.800 C 155.199 96.360,155.620 96.000,156.020 96.000 C 156.419 96.000,156.860 95.640,157.000 95.200 C 157.180 94.632,157.605 94.400,158.464 94.400 C 159.338 94.400,159.733 94.178,159.884 93.600 C 159.999 93.160,160.413 92.800,160.803 92.800 C 161.240 92.800,161.626 92.377,161.806 91.700 C 161.967 91.095,162.175 90.806,162.268 91.058 C 162.504 91.691,164.087 91.223,164.723 90.332 C 165.010 89.929,165.505 89.600,165.823 89.600 C 166.140 89.600,166.400 89.350,166.400 89.045 C 166.400 88.726,166.998 88.377,167.800 88.226 C 168.638 88.069,169.200 87.730,169.200 87.382 C 169.200 87.062,169.468 86.800,169.797 86.800 C 170.125 86.800,170.618 86.440,170.893 86.000 C 171.168 85.560,171.613 85.200,171.882 85.200 C 172.151 85.200,172.565 84.840,172.800 84.400 C 173.057 83.920,173.638 83.600,174.252 83.600 C 174.938 83.600,175.344 83.337,175.484 82.800 C 175.599 82.360,175.989 82.000,176.350 82.000 C 176.712 82.000,177.232 81.640,177.507 81.200 C 177.797 80.735,178.440 80.400,179.041 80.400 C 179.738 80.400,180.143 80.140,180.284 79.600 C 180.400 79.157,180.830 78.800,181.247 78.800 C 181.733 78.800,182.000 78.517,182.000 78.000 C 182.000 77.355,182.267 77.200,183.373 77.200 C 184.395 77.200,184.811 76.995,185.000 76.400 C 185.140 75.960,185.517 75.600,185.840 75.600 C 186.162 75.600,186.527 75.335,186.651 75.011 C 186.776 74.687,187.490 74.307,188.239 74.166 C 189.025 74.019,189.600 73.672,189.600 73.346 C 189.600 73.035,190.005 72.611,190.500 72.404 C 192.537 71.552,192.800 71.059,192.800 68.099 C 192.800 65.164,192.577 64.800,190.781 64.800 C 190.367 64.800,189.835 64.440,189.600 64.000 C 189.365 63.560,188.908 63.200,188.586 63.200 C 188.264 63.200,188.000 62.930,188.000 62.600 C 188.000 62.270,187.730 61.977,187.400 61.950 C 187.070 61.923,186.605 61.877,186.368 61.850 C 186.130 61.823,185.705 61.485,185.424 61.100 C 185.142 60.715,184.713 60.400,184.470 60.400 C 184.227 60.400,183.835 60.040,183.600 59.600 C 183.298 59.036,182.762 58.800,181.786 58.800 C 180.667 58.800,180.400 58.646,180.400 58.000 C 180.400 57.467,180.133 57.200,179.600 57.200 C 179.067 57.200,178.800 56.933,178.800 56.400 C 178.800 55.903,178.533 55.600,178.096 55.600 C 177.709 55.600,177.168 55.240,176.893 54.800 C 176.574 54.290,175.960 54.000,175.197 54.000 C 174.267 54.000,174.000 53.822,174.000 53.200 C 174.000 52.756,173.733 52.400,173.400 52.400 C 173.070 52.400,172.440 52.040,172.000 51.600 C 171.560 51.160,170.861 50.800,170.447 50.800 C 170.014 50.800,169.598 50.437,169.471 49.948 C 169.325 49.393,169.037 49.177,168.644 49.328 C 168.268 49.472,167.949 49.271,167.798 48.793 C 167.647 48.317,167.035 47.930,166.177 47.769 C 165.375 47.619,164.800 47.274,164.800 46.943 C 164.800 46.631,164.485 46.257,164.100 46.112 C 163.715 45.968,163.206 45.591,162.969 45.275 C 162.732 44.959,162.034 44.700,161.418 44.700 C 160.681 44.700,160.235 44.457,160.112 43.987 C 160.010 43.595,159.583 43.184,159.163 43.074 C 158.743 42.965,158.400 42.588,158.400 42.237 C 158.400 41.776,158.014 41.600,157.000 41.600 C 155.986 41.600,155.600 41.424,155.600 40.963 C 155.600 40.612,155.246 40.233,154.813 40.119 C 154.381 40.006,153.912 39.552,153.771 39.110 C 153.553 38.422,153.263 38.334,151.766 38.503 C 150.449 38.651,149.894 38.539,149.527 38.050 C 149.117 37.504,149.128 37.480,149.599 37.900 C 150.404 38.617,150.800 38.518,150.800 37.600 C 150.800 37.067,150.533 36.800,150.000 36.800 C 149.550 36.800,149.200 36.533,149.200 36.190 C 149.200 35.855,148.750 35.409,148.200 35.200 C 147.650 34.991,147.200 34.644,147.200 34.428 C 147.200 34.213,146.570 33.918,145.800 33.774 C 145.030 33.629,144.400 33.273,144.400 32.982 C 144.400 32.692,144.057 32.345,143.637 32.212 C 143.217 32.079,142.774 31.709,142.652 31.392 C 142.527 31.066,142.161 30.917,141.815 31.050 C 141.477 31.179,141.200 31.086,141.200 30.843 C 141.200 30.599,140.861 30.400,140.447 30.400 C 140.014 30.400,139.598 30.037,139.471 29.548 C 139.338 29.040,139.028 28.780,138.703 28.905 C 138.403 29.020,137.753 28.693,137.257 28.178 C 136.762 27.663,136.096 27.342,135.778 27.464 C 135.419 27.602,135.200 27.437,135.200 27.030 C 135.200 26.371,133.670 25.535,133.090 25.877 C 132.920 25.977,132.830 25.823,132.890 25.534 C 132.952 25.239,132.429 24.838,131.700 24.621 C 130.860 24.372,130.400 23.980,130.400 23.517 C 130.400 22.947,130.072 22.800,128.800 22.800 C 127.467 22.800,127.200 22.667,127.200 22.000 C 127.200 21.467,126.933 21.200,126.400 21.200 C 125.867 21.200,125.600 20.933,125.600 20.400 C 125.600 19.758,125.333 19.600,124.247 19.600 C 123.230 19.600,122.841 19.401,122.684 18.800 C 122.569 18.360,122.188 18.000,121.837 18.000 C 121.487 18.000,121.200 17.730,121.200 17.400 C 121.200 17.070,121.029 16.800,120.821 16.800 C 120.612 16.800,119.956 16.350,119.362 15.800 C 118.769 15.250,117.859 14.800,117.342 14.800 C 116.667 14.800,116.400 14.573,116.400 14.000 C 116.400 13.482,116.133 13.200,115.643 13.200 C 115.226 13.200,114.782 12.930,114.655 12.600 C 114.511 12.223,113.899 12.000,113.013 12.000 C 112.236 12.000,111.578 11.820,111.550 11.600 C 111.522 11.380,111.478 10.990,111.450 10.733 C 111.366 9.951,110.479 9.909,110.280 10.678 C 110.177 11.076,110.072 10.817,110.046 10.100 C 110.004 8.899,109.897 8.800,108.647 8.800 C 107.630 8.800,107.241 8.601,107.084 8.000 C 106.802 6.919,100.141 6.766,99.733 7.831 M297.600 8.000 C 297.600 8.533,297.333 8.800,296.800 8.800 C 296.253 8.800,296.000 9.067,296.000 9.643 C 296.000 10.228,295.816 10.415,295.400 10.255 C 295.070 10.129,294.800 10.210,294.800 10.436 C 294.800 10.662,294.640 10.749,294.445 10.628 C 293.937 10.314,293.077 11.477,293.414 12.022 C 293.624 12.362,293.486 12.367,292.875 12.040 C 291.676 11.398,291.485 11.487,291.696 12.588 C 291.799 13.131,291.726 13.478,291.532 13.358 C 291.010 13.035,288.759 13.610,289.002 14.004 C 289.208 14.336,287.689 15.035,287.100 14.879 C 286.935 14.836,286.800 15.139,286.800 15.553 C 286.800 15.970,286.443 16.400,286.000 16.516 C 285.560 16.631,285.200 17.012,285.200 17.363 C 285.200 17.822,284.817 18.000,283.827 18.000 C 282.805 18.000,282.389 18.205,282.200 18.800 C 282.060 19.240,281.598 19.600,281.173 19.600 C 280.667 19.600,280.400 19.876,280.400 20.400 C 280.400 21.045,280.133 21.200,279.027 21.200 C 278.005 21.200,277.589 21.405,277.400 22.000 C 277.260 22.440,276.900 22.800,276.600 22.800 C 276.300 22.800,275.940 23.160,275.800 23.600 C 275.613 24.188,275.195 24.400,274.220 24.400 C 273.230 24.400,272.840 24.603,272.684 25.200 C 272.569 25.640,272.188 26.000,271.837 26.000 C 271.487 26.000,271.200 26.270,271.200 26.600 C 271.200 26.930,271.020 27.223,270.800 27.250 C 270.580 27.277,270.220 27.345,270.000 27.400 C 269.780 27.455,269.240 27.523,268.800 27.550 C 268.356 27.578,268.000 27.883,268.000 28.237 C 268.000 28.588,267.640 28.969,267.200 29.084 C 266.760 29.199,266.400 29.441,266.400 29.621 C 266.400 29.801,265.770 30.176,265.000 30.454 C 264.230 30.733,263.600 31.174,263.600 31.434 C 263.600 31.837,262.620 32.352,261.485 32.546 C 261.312 32.576,261.004 32.870,260.800 33.200 C 260.596 33.530,260.243 33.823,260.015 33.850 C 259.787 33.877,259.420 33.923,259.200 33.950 C 258.980 33.977,258.800 34.270,258.800 34.600 C 258.800 34.933,258.444 35.200,258.000 35.200 C 257.467 35.200,257.200 35.467,257.200 36.000 C 257.200 36.763,256.431 37.035,254.869 36.823 C 254.577 36.783,254.241 37.122,254.122 37.575 C 254.001 38.040,253.578 38.400,253.153 38.400 C 252.667 38.400,252.400 38.683,252.400 39.200 C 252.400 39.855,252.133 40.000,250.933 40.000 C 250.127 40.000,249.578 40.111,249.714 40.248 C 250.069 40.603,248.974 41.600,248.229 41.600 C 247.883 41.600,247.600 41.867,247.600 42.192 C 247.600 42.518,247.105 42.904,246.500 43.049 C 245.895 43.194,245.078 43.647,244.684 44.056 C 244.291 44.465,243.796 44.800,243.584 44.800 C 243.373 44.800,243.200 45.050,243.200 45.355 C 243.200 45.673,242.604 46.023,241.811 46.172 C 241.047 46.315,240.282 46.664,240.111 46.946 C 239.940 47.229,239.485 47.576,239.100 47.718 C 238.715 47.859,238.400 48.251,238.400 48.587 C 238.400 48.924,238.130 49.223,237.800 49.250 C 237.470 49.278,237.020 49.345,236.800 49.400 C 236.580 49.455,236.232 49.523,236.027 49.550 C 235.822 49.578,235.539 49.963,235.398 50.406 C 235.257 50.849,234.981 51.112,234.784 50.990 C 234.587 50.869,234.197 51.136,233.917 51.584 C 233.637 52.033,233.091 52.400,232.704 52.400 C 232.317 52.400,231.640 52.760,231.200 53.200 C 230.760 53.640,230.130 54.000,229.800 54.000 C 229.470 54.000,229.200 54.287,229.200 54.637 C 229.200 54.988,228.846 55.367,228.413 55.481 C 227.981 55.594,227.518 56.027,227.386 56.443 C 227.220 56.966,226.772 57.200,225.936 57.200 C 225.062 57.200,224.667 57.422,224.516 58.000 C 224.400 58.443,223.970 58.800,223.553 58.800 C 223.103 58.800,222.800 59.081,222.799 59.500 C 222.799 59.999,222.438 60.225,221.540 60.289 C 220.847 60.337,219.941 60.742,219.525 61.189 C 219.109 61.635,218.596 62.000,218.384 62.000 C 218.173 62.000,218.000 62.270,218.000 62.600 C 218.000 62.933,217.644 63.200,217.200 63.200 C 216.760 63.200,216.040 63.560,215.600 64.000 C 215.160 64.440,214.556 64.800,214.258 64.800 C 212.599 64.800,211.051 68.347,212.303 69.277 C 212.690 69.565,213.185 70.325,213.403 70.967 C 213.664 71.735,214.211 72.269,215.000 72.526 C 215.660 72.741,216.344 73.161,216.520 73.459 C 216.696 73.756,217.089 74.000,217.393 74.000 C 217.697 74.000,218.060 74.360,218.200 74.800 C 218.389 75.395,218.805 75.600,219.827 75.600 C 220.933 75.600,221.200 75.755,221.200 76.400 C 221.200 76.917,221.467 77.200,221.953 77.200 C 222.370 77.200,222.800 77.557,222.916 78.000 C 223.076 78.613,223.462 78.800,224.563 78.800 C 225.733 78.800,226.000 78.948,226.000 79.600 C 226.000 80.133,226.267 80.400,226.800 80.400 C 227.240 80.400,227.600 80.651,227.600 80.957 C 227.600 81.569,228.441 82.000,229.633 82.000 C 230.068 82.000,230.400 82.276,230.400 82.637 C 230.400 82.988,230.760 83.369,231.200 83.484 C 231.640 83.599,232.000 83.923,232.000 84.204 C 232.000 84.806,232.883 85.200,234.233 85.200 C 234.851 85.200,235.200 85.430,235.200 85.837 C 235.200 86.188,235.560 86.569,236.000 86.684 C 236.440 86.799,236.800 87.142,236.800 87.447 C 236.800 87.751,237.048 88.000,237.351 88.000 C 237.654 88.000,238.149 88.366,238.451 88.813 C 238.784 89.305,239.512 89.660,240.299 89.713 C 241.236 89.776,241.599 89.995,241.599 90.500 C 241.600 90.991,241.918 91.200,242.667 91.200 C 243.253 91.200,243.615 91.318,243.470 91.463 C 243.021 91.913,244.051 92.800,245.022 92.800 C 245.595 92.800,246.043 93.104,246.200 93.600 C 246.340 94.040,246.781 94.400,247.180 94.400 C 247.580 94.400,248.001 94.760,248.116 95.200 C 248.268 95.783,248.662 96.000,249.563 96.000 C 250.407 96.000,250.800 96.194,250.800 96.613 C 250.800 96.949,251.115 97.343,251.500 97.486 C 251.885 97.630,252.435 98.074,252.723 98.474 C 253.024 98.893,253.744 99.200,254.423 99.200 C 255.333 99.200,255.600 99.381,255.600 100.000 C 255.600 100.444,255.867 100.800,256.200 100.800 C 256.530 100.800,257.177 101.177,257.637 101.637 C 258.113 102.113,258.789 102.391,259.205 102.283 C 259.725 102.147,260.005 102.367,260.176 103.046 C 260.327 103.650,260.706 104.000,261.208 104.000 C 261.643 104.000,262.000 104.262,262.000 104.582 C 262.000 104.930,262.562 105.269,263.400 105.426 C 264.170 105.571,264.800 105.910,264.800 106.180 C 264.800 106.451,265.250 106.877,265.800 107.127 C 266.350 107.378,266.800 107.767,266.800 107.991 C 266.800 108.216,267.430 108.400,268.200 108.400 C 269.333 108.400,269.600 108.552,269.600 109.200 C 269.600 109.717,269.867 110.000,270.353 110.000 C 270.770 110.000,271.200 110.357,271.316 110.800 C 271.476 111.413,271.862 111.600,272.963 111.600 C 274.133 111.600,274.400 111.748,274.400 112.400 C 274.400 112.933,274.667 113.200,275.200 113.200 C 275.733 113.200,276.000 113.467,276.000 114.000 C 276.000 114.652,276.267 114.800,277.437 114.800 C 278.538 114.800,278.924 114.987,279.084 115.600 C 279.199 116.040,279.530 116.400,279.820 116.400 C 280.109 116.400,280.466 116.777,280.612 117.238 C 280.832 117.930,281.139 118.052,282.365 117.935 C 283.724 117.805,283.837 117.871,283.679 118.696 C 283.547 119.391,283.692 119.600,284.307 119.600 C 284.770 119.600,285.195 119.936,285.316 120.400 C 285.476 121.013,285.862 121.200,286.963 121.200 C 288.133 121.200,288.400 121.348,288.400 122.000 C 288.400 122.533,288.667 122.800,289.200 122.800 C 289.640 122.800,290.000 123.051,290.000 123.357 C 290.000 124.006,290.853 124.400,292.256 124.400 C 292.857 124.400,293.143 124.568,292.983 124.827 C 292.838 125.062,293.081 125.348,293.523 125.464 C 293.965 125.579,294.416 126.017,294.526 126.437 C 294.637 126.863,295.074 127.200,295.516 127.200 C 295.970 127.200,296.396 127.540,296.516 128.000 C 296.668 128.583,297.062 128.800,297.963 128.800 C 298.933 128.800,299.200 128.972,299.200 129.600 C 299.200 130.311,299.467 130.400,301.600 130.400 C 302.920 130.400,303.979 130.265,303.953 130.100 C 303.796 129.108,304.128 128.800,305.353 128.800 C 306.370 128.800,306.759 128.601,306.916 128.000 C 307.031 127.560,307.412 127.200,307.763 127.200 C 308.113 127.200,308.400 126.922,308.400 126.583 C 308.400 126.243,308.805 125.568,309.300 125.082 C 309.795 124.596,310.065 124.370,309.900 124.579 C 309.357 125.268,309.585 125.600,310.600 125.600 C 311.222 125.600,311.600 125.373,311.600 125.000 C 311.600 124.670,311.887 124.400,312.237 124.400 C 312.588 124.400,312.965 124.057,313.074 123.638 C 313.201 123.154,313.767 122.783,314.626 122.622 C 315.370 122.482,316.118 122.136,316.289 121.854 C 316.460 121.571,316.915 121.224,317.300 121.082 C 317.685 120.941,318.000 120.549,318.000 120.213 C 318.000 119.875,318.345 119.600,318.767 119.600 C 319.942 119.600,320.800 119.172,320.800 118.585 C 320.800 118.294,321.205 117.998,321.700 117.928 C 322.270 117.847,322.580 117.543,322.544 117.100 C 322.506 116.613,322.780 116.400,323.444 116.400 C 323.970 116.400,324.379 116.265,324.353 116.100 C 324.195 115.099,324.528 114.800,325.800 114.800 C 326.933 114.800,327.200 114.648,327.200 114.000 C 327.200 113.503,327.467 113.200,327.904 113.200 C 328.291 113.200,328.832 112.840,329.107 112.400 C 329.426 111.890,330.040 111.600,330.803 111.600 C 331.733 111.600,332.000 111.422,332.000 110.800 C 332.000 110.267,332.267 110.000,332.800 110.000 C 333.240 110.000,333.960 109.640,334.400 109.200 C 334.840 108.760,335.560 108.400,336.000 108.400 C 336.440 108.400,336.800 108.144,336.800 107.832 C 336.800 107.519,337.352 107.142,338.027 106.994 C 338.702 106.846,339.351 106.472,339.470 106.162 C 339.588 105.853,339.916 105.600,340.198 105.600 C 340.479 105.600,341.120 105.085,341.622 104.455 C 342.215 103.710,342.790 103.377,343.267 103.502 C 343.670 103.607,344.000 103.488,344.000 103.237 C 344.000 102.986,344.450 102.609,345.000 102.400 C 345.550 102.191,346.000 101.745,346.000 101.410 C 346.000 101.026,346.371 100.800,347.000 100.800 C 347.550 100.800,348.329 100.471,348.731 100.069 C 349.132 99.668,349.762 99.223,350.131 99.082 C 350.499 98.941,350.800 98.549,350.800 98.213 C 350.800 97.867,351.148 97.600,351.600 97.600 C 352.040 97.600,352.760 97.240,353.200 96.800 C 353.640 96.360,354.249 96.000,354.553 96.000 C 354.858 96.000,355.201 95.640,355.316 95.200 C 355.470 94.611,355.862 94.400,356.800 94.400 C 357.738 94.400,358.130 94.189,358.284 93.600 C 358.403 93.144,358.830 92.800,359.275 92.800 C 359.863 92.800,360.027 92.568,359.935 91.865 C 359.827 91.043,360.742 89.600,361.371 89.600 C 361.971 89.600,361.502 90.377,360.760 90.613 C 360.171 90.800,360.046 91.006,360.341 91.301 C 360.637 91.597,361.179 91.406,362.155 90.662 C 362.920 90.078,363.829 89.600,364.173 89.600 C 364.518 89.600,364.800 89.351,364.800 89.047 C 364.800 88.742,365.160 88.399,365.600 88.284 C 366.040 88.169,366.400 87.788,366.400 87.437 C 366.400 86.999,366.767 86.800,367.577 86.800 C 368.256 86.800,368.976 86.493,369.277 86.074 C 369.565 85.674,370.115 85.230,370.500 85.086 C 370.885 84.943,371.200 84.549,371.200 84.213 C 371.200 83.794,371.593 83.600,372.437 83.600 C 373.338 83.600,373.732 83.383,373.884 82.800 C 374.000 82.357,374.430 82.000,374.847 82.000 C 375.333 82.000,375.600 81.717,375.600 81.200 C 375.600 80.551,375.867 80.400,377.010 80.400 C 378.155 80.400,378.493 80.207,378.810 79.374 C 379.317 78.041,379.302 77.891,378.700 78.253 C 378.360 78.457,378.376 78.337,378.749 77.877 C 379.337 77.152,379.629 77.015,379.553 77.500 C 379.437 78.233,379.632 78.800,380.000 78.800 C 380.220 78.800,380.400 78.440,380.400 78.000 C 380.400 77.378,380.667 77.200,381.597 77.200 C 382.360 77.200,382.974 76.910,383.293 76.400 C 383.568 75.960,384.025 75.600,384.309 75.600 C 384.593 75.600,384.929 75.330,385.055 75.000 C 385.182 74.670,385.547 74.400,385.866 74.400 C 386.186 74.400,386.352 74.246,386.236 74.058 C 386.119 73.870,386.497 73.806,387.074 73.916 C 387.984 74.090,388.095 74.005,387.903 73.272 C 387.781 72.808,387.799 72.443,387.941 72.461 C 388.896 72.585,389.600 72.317,389.600 71.828 C 389.600 71.513,390.005 71.198,390.500 71.128 C 392.577 70.833,391.754 64.800,389.637 64.800 C 388.805 64.800,388.379 64.562,388.200 64.000 C 388.060 63.560,387.598 63.200,387.173 63.200 C 386.748 63.200,386.400 62.930,386.400 62.600 C 386.400 62.049,386.153 61.955,384.405 61.838 C 384.078 61.816,383.750 61.484,383.676 61.099 C 383.602 60.715,383.291 60.400,382.985 60.400 C 382.679 60.400,382.235 60.040,382.000 59.600 C 381.698 59.036,381.162 58.800,380.186 58.800 C 379.067 58.800,378.800 58.646,378.800 58.000 C 378.800 57.467,378.533 57.200,378.000 57.200 C 377.467 57.200,377.200 56.933,377.200 56.400 C 377.200 55.755,376.933 55.600,375.827 55.600 C 374.805 55.600,374.389 55.395,374.200 54.800 C 374.060 54.360,373.598 54.000,373.173 54.000 C 372.667 54.000,372.400 53.724,372.400 53.200 C 372.400 52.756,372.133 52.400,371.800 52.400 C 371.470 52.400,370.840 52.040,370.400 51.600 C 369.960 51.160,369.261 50.800,368.847 50.800 C 368.422 50.800,367.999 50.440,367.878 49.975 C 367.759 49.522,367.422 49.206,367.129 49.273 C 366.836 49.340,366.192 48.992,365.698 48.498 C 365.204 48.004,364.440 47.600,364.000 47.600 C 363.556 47.600,363.200 47.333,363.200 47.000 C 363.200 46.670,363.027 46.400,362.816 46.400 C 362.604 46.400,362.070 46.012,361.629 45.539 C 361.126 44.999,360.373 44.690,359.613 44.712 C 358.669 44.739,358.400 44.575,358.400 43.973 C 358.400 43.483,358.125 43.200,357.647 43.200 C 357.230 43.200,356.800 42.843,356.684 42.400 C 356.532 41.817,356.138 41.600,355.237 41.600 C 354.395 41.600,354.000 41.405,354.000 40.990 C 354.000 40.655,353.575 40.218,353.055 40.021 C 352.535 39.823,352.000 39.377,351.867 39.031 C 351.720 38.648,351.148 38.400,350.413 38.400 C 349.467 38.400,349.200 38.224,349.200 37.600 C 349.200 37.103,348.933 36.800,348.496 36.800 C 348.109 36.800,347.568 36.440,347.293 36.000 C 346.974 35.490,346.360 35.200,345.597 35.200 C 344.667 35.200,344.400 35.022,344.400 34.400 C 344.400 33.867,344.133 33.600,343.600 33.600 C 343.160 33.600,342.800 33.349,342.800 33.043 C 342.800 32.436,341.961 32.000,340.794 32.000 C 340.387 32.000,339.940 31.640,339.800 31.200 C 339.660 30.760,339.198 30.400,338.773 30.400 C 338.348 30.400,338.000 30.130,338.000 29.800 C 338.000 29.470,337.730 29.177,337.400 29.150 C 337.070 29.123,336.620 29.055,336.400 29.000 C 336.180 28.945,335.820 28.877,335.600 28.850 C 335.380 28.823,335.200 28.559,335.200 28.264 C 335.200 27.970,334.750 27.523,334.200 27.273 C 333.650 27.022,333.200 26.653,333.200 26.453 C 333.200 26.253,332.570 25.971,331.800 25.826 C 330.962 25.669,330.400 25.330,330.400 24.982 C 330.400 24.662,330.061 24.400,329.647 24.400 C 329.230 24.400,328.800 24.043,328.684 23.600 C 328.524 22.987,328.138 22.800,327.037 22.800 C 325.867 22.800,325.600 22.652,325.600 22.000 C 325.600 21.467,325.333 21.200,324.800 21.200 C 324.267 21.200,324.000 20.933,324.000 20.400 C 324.000 19.752,323.733 19.600,322.600 19.600 C 321.467 19.600,321.200 19.448,321.200 18.800 C 321.200 18.276,320.933 18.000,320.427 18.000 C 320.002 18.000,319.538 17.635,319.397 17.189 C 319.255 16.744,318.928 16.405,318.670 16.437 C 317.141 16.625,316.400 16.352,316.400 15.600 C 316.400 15.067,316.133 14.800,315.600 14.800 C 315.160 14.800,314.800 14.549,314.800 14.243 C 314.800 13.598,313.948 13.200,312.567 13.200 C 311.872 13.200,311.600 12.979,311.600 12.413 C 311.600 11.864,311.411 11.698,310.976 11.865 C 310.559 12.024,310.278 11.821,310.129 11.252 C 309.921 10.455,309.334 10.206,308.069 10.377 C 307.777 10.417,307.441 10.078,307.322 9.625 C 307.204 9.171,306.789 8.800,306.400 8.800 C 306.011 8.800,305.599 8.440,305.484 8.000 C 305.293 7.270,304.938 7.200,301.437 7.200 C 297.867 7.200,297.600 7.256,297.600 8.000 M49.000 44.400 C 48.864 44.620,48.493 44.800,48.176 44.800 C 47.859 44.800,47.600 45.010,47.600 45.267 C 47.600 45.523,47.465 45.599,47.301 45.434 C 47.136 45.269,47.350 44.879,47.777 44.567 C 48.675 43.911,49.360 43.817,49.000 44.400 M179.800 58.400 C 179.664 58.620,179.283 58.800,178.953 58.800 C 178.623 58.800,178.464 58.620,178.600 58.400 C 178.736 58.180,179.117 58.000,179.447 58.000 C 179.777 58.000,179.936 58.180,179.800 58.400 M23.588 61.584 C 23.912 61.789,24.079 62.054,23.959 62.174 C 23.840 62.294,23.395 62.129,22.971 61.809 C 22.127 61.171,22.640 60.985,23.588 61.584 M378.185 79.224 C 378.069 79.412,377.711 79.464,377.389 79.341 C 377.068 79.217,376.899 78.963,377.015 78.776 C 377.131 78.588,377.489 78.536,377.811 78.659 C 378.132 78.783,378.301 79.037,378.185 79.224 M373.600 82.076 C 373.600 82.602,372.691 82.273,372.492 81.675 C 372.394 81.382,372.577 81.293,372.967 81.443 C 373.315 81.576,373.600 81.861,373.600 82.076 M338.716 105.758 C 338.184 106.334,337.600 106.239,337.600 105.576 C 337.600 105.369,337.967 105.200,338.416 105.200 C 339.093 105.200,339.144 105.294,338.716 105.758 M110.718 126.150 C 110.435 126.452,109.979 126.613,109.704 126.508 C 108.989 126.233,109.502 125.600,110.439 125.600 C 111.094 125.600,111.142 125.696,110.718 126.150 M199.507 173.600 C 199.232 174.040,198.691 174.400,198.304 174.400 C 197.917 174.400,197.600 174.665,197.600 174.989 C 197.600 175.315,197.022 175.730,196.300 175.921 C 195.327 176.178,195.008 176.481,195.031 177.124 C 195.056 177.826,194.957 177.896,194.488 177.507 C 193.774 176.915,192.737 178.105,193.065 179.139 C 193.197 179.552,193.149 179.634,192.938 179.357 C 192.498 178.779,191.312 178.975,190.433 179.770 C 190.050 180.116,189.507 180.400,189.226 180.400 C 188.945 180.400,188.361 180.850,187.929 181.400 C 187.496 181.950,186.879 182.400,186.558 182.400 C 186.237 182.400,185.871 182.670,185.745 183.000 C 185.618 183.330,185.157 183.600,184.720 183.600 C 184.262 183.600,183.837 183.939,183.716 184.400 C 183.601 184.840,183.177 185.200,182.774 185.200 C 182.371 185.200,181.559 185.647,180.970 186.193 C 180.381 186.738,179.755 187.096,179.578 186.987 C 179.402 186.878,179.149 187.132,179.016 187.551 C 178.882 187.970,178.403 188.410,177.951 188.529 C 177.368 188.681,177.197 188.959,177.363 189.482 C 177.569 190.132,177.404 190.202,175.999 190.068 C 174.592 189.934,174.400 190.017,174.400 190.758 C 174.400 191.333,174.147 191.600,173.600 191.600 C 173.105 191.600,172.800 191.867,172.799 192.300 C 172.799 192.799,172.438 193.025,171.540 193.089 C 170.847 193.137,169.941 193.542,169.525 193.989 C 169.109 194.435,168.596 194.800,168.384 194.800 C 168.173 194.800,168.000 195.070,168.000 195.400 C 168.000 195.733,167.644 196.000,167.200 196.000 C 166.667 196.000,166.400 196.267,166.400 196.800 C 166.400 197.534,165.317 197.891,163.866 197.636 C 163.682 197.604,163.437 197.936,163.322 198.375 C 163.208 198.814,162.777 199.280,162.365 199.411 C 161.953 199.542,161.658 199.863,161.708 200.124 C 161.763 200.407,161.192 200.650,160.300 200.724 C 159.125 200.821,158.800 201.016,158.800 201.624 C 158.800 202.133,158.525 202.400,158.000 202.400 C 157.467 202.400,157.200 202.667,157.200 203.200 C 157.200 203.819,156.933 204.000,156.023 204.000 C 155.344 204.000,154.624 204.307,154.323 204.726 C 154.035 205.126,153.485 205.570,153.100 205.714 C 152.715 205.857,152.400 206.251,152.400 206.587 C 152.400 207.000,152.012 207.200,151.214 207.200 C 150.438 207.200,149.880 207.476,149.600 208.000 C 149.365 208.440,148.818 208.800,148.386 208.800 C 147.853 208.800,147.600 209.072,147.600 209.643 C 147.600 210.152,147.402 210.410,147.100 210.295 C 146.288 209.986,144.800 210.721,144.800 211.430 C 144.800 211.845,144.582 212.002,144.206 211.858 C 143.857 211.724,143.439 211.953,143.192 212.415 C 142.961 212.847,142.489 213.200,142.143 213.200 C 141.689 213.200,141.577 213.452,141.740 214.102 C 141.953 214.950,141.861 214.995,140.183 214.861 C 138.593 214.735,138.400 214.810,138.400 215.560 C 138.400 216.022,138.158 216.400,137.862 216.400 C 137.566 216.400,136.998 216.760,136.600 217.200 C 136.199 217.643,135.368 218.000,134.738 218.000 C 133.882 218.000,133.600 218.191,133.600 218.768 C 133.600 219.292,133.228 219.618,132.433 219.793 C 131.792 219.934,131.167 220.308,131.046 220.624 C 130.924 220.941,130.472 221.200,130.040 221.200 C 129.605 221.200,129.140 221.558,129.000 222.000 C 128.860 222.440,128.488 222.822,128.173 222.850 C 127.858 222.878,127.420 222.945,127.200 223.000 C 126.980 223.055,126.601 223.123,126.357 223.150 C 126.114 223.178,126.018 223.470,126.145 223.800 C 126.309 224.229,126.106 224.400,125.434 224.400 C 124.830 224.400,124.418 224.686,124.284 225.200 C 124.169 225.640,123.788 226.000,123.437 226.000 C 123.081 226.000,122.800 226.330,122.800 226.748 C 122.800 227.195,122.518 227.495,122.100 227.493 C 119.956 227.485,119.600 227.620,119.600 228.443 C 119.600 229.049,119.421 229.217,118.963 229.041 C 118.538 228.878,118.256 229.064,118.116 229.598 C 118.001 230.039,117.613 230.421,117.253 230.446 C 116.894 230.472,116.336 230.517,116.013 230.546 C 115.690 230.576,115.224 231.004,114.977 231.498 C 114.731 231.991,114.400 232.267,114.243 232.109 C 113.776 231.643,113.213 232.894,113.206 234.411 C 113.199 236.042,114.951 237.890,116.868 238.274 C 117.491 238.398,118.000 238.748,118.000 239.050 C 118.000 239.353,118.260 239.600,118.577 239.600 C 118.895 239.600,119.406 239.959,119.713 240.397 C 120.020 240.836,120.840 241.308,121.536 241.447 C 122.231 241.586,122.800 241.947,122.800 242.250 C 122.800 242.553,123.139 242.800,123.553 242.800 C 123.970 242.800,124.400 243.157,124.516 243.600 C 124.667 244.178,125.062 244.400,125.936 244.400 C 126.795 244.400,127.220 244.632,127.400 245.200 C 127.540 245.640,128.002 246.000,128.427 246.000 C 128.852 246.000,129.200 246.251,129.200 246.557 C 129.200 247.169,130.041 247.600,131.233 247.600 C 131.733 247.600,132.000 247.878,132.000 248.400 C 132.000 248.987,132.267 249.200,133.000 249.200 C 133.588 249.200,134.000 249.430,134.000 249.757 C 134.000 250.409,135.745 250.935,136.800 250.600 C 137.203 250.472,137.647 250.553,137.787 250.779 C 137.938 251.024,137.790 251.094,137.421 250.953 C 136.981 250.784,136.800 250.960,136.800 251.557 C 136.800 252.117,137.054 252.400,137.557 252.400 C 137.974 252.400,138.414 252.660,138.536 252.978 C 138.658 253.296,139.397 253.676,140.179 253.822 C 141.211 254.016,141.600 254.296,141.600 254.845 C 141.600 255.319,141.882 255.600,142.357 255.600 C 142.774 255.600,143.212 255.853,143.330 256.162 C 143.449 256.472,144.098 256.846,144.773 256.994 C 145.448 257.142,146.000 257.519,146.000 257.832 C 146.000 258.164,146.397 258.400,146.956 258.400 C 147.620 258.400,147.894 258.613,147.856 259.100 C 147.813 259.633,148.159 259.830,149.300 259.924 C 150.475 260.021,150.800 260.216,150.800 260.824 C 150.800 261.333,151.075 261.600,151.600 261.600 C 152.133 261.600,152.400 261.867,152.400 262.400 C 152.400 263.067,152.667 263.200,154.000 263.200 C 155.333 263.200,155.600 263.333,155.600 264.000 C 155.600 264.533,155.867 264.800,156.400 264.800 C 156.933 264.800,157.200 265.067,157.200 265.600 C 157.200 266.268,157.467 266.400,158.818 266.400 C 160.136 266.400,160.413 266.529,160.318 267.100 C 160.240 267.563,160.497 267.842,161.078 267.925 C 161.647 268.006,161.879 268.250,161.737 268.619 C 161.599 268.979,161.902 269.335,162.559 269.585 C 163.132 269.802,163.600 270.150,163.600 270.358 C 163.600 270.566,164.163 270.860,164.852 271.011 C 165.541 271.163,166.664 271.897,167.349 272.643 C 168.034 273.389,168.781 274.000,169.008 274.000 C 169.236 274.000,169.730 274.360,170.107 274.800 C 170.484 275.240,171.244 275.600,171.796 275.600 C 172.533 275.600,172.800 275.813,172.800 276.400 C 172.800 277.007,173.067 277.200,173.904 277.200 C 174.574 277.200,175.204 277.514,175.507 278.000 C 175.782 278.440,176.263 278.800,176.576 278.800 C 176.890 278.800,177.260 279.160,177.400 279.600 C 177.540 280.040,178.002 280.400,178.427 280.400 C 178.852 280.400,179.200 280.662,179.200 280.982 C 179.200 281.329,179.759 281.669,180.586 281.824 C 181.445 281.985,182.064 282.372,182.213 282.842 C 182.346 283.259,182.717 283.600,183.040 283.600 C 183.362 283.600,183.729 283.870,183.855 284.200 C 183.982 284.530,184.345 284.800,184.661 284.800 C 184.977 284.800,185.686 285.250,186.236 285.800 C 186.786 286.350,187.498 286.800,187.818 286.800 C 188.138 286.800,188.400 286.984,188.400 287.210 C 188.400 287.435,188.850 287.791,189.400 288.000 C 189.950 288.209,190.400 288.553,190.400 288.764 C 190.400 288.975,191.030 289.376,191.800 289.654 C 192.570 289.933,193.200 290.395,193.200 290.680 C 193.200 290.966,193.560 291.200,194.000 291.200 C 194.440 291.200,195.144 291.544,195.564 291.964 C 195.984 292.384,196.659 292.791,197.064 292.869 C 197.469 292.947,197.800 293.276,197.800 293.600 C 197.800 293.924,198.131 294.253,198.536 294.331 C 198.941 294.409,199.616 294.816,200.036 295.236 C 201.201 296.401,206.800 296.371,206.800 295.200 C 206.800 294.667,207.067 294.400,207.600 294.400 C 208.040 294.400,208.760 294.040,209.200 293.600 C 209.640 293.160,210.270 292.800,210.600 292.800 C 210.930 292.800,211.200 292.616,211.200 292.390 C 211.200 292.165,211.689 291.794,212.286 291.567 C 213.174 291.229,213.266 291.080,212.786 290.751 C 212.333 290.439,212.392 290.401,213.044 290.583 C 213.556 290.726,214.086 290.579,214.393 290.209 C 214.671 289.874,215.152 289.600,215.462 289.600 C 215.771 289.600,216.129 289.330,216.255 289.000 C 216.382 288.670,216.723 288.400,217.012 288.400 C 217.302 288.400,218.073 287.950,218.727 287.400 C 219.381 286.850,220.115 286.400,220.358 286.400 C 220.601 286.400,220.800 286.130,220.800 285.800 C 220.800 285.470,221.139 285.200,221.553 285.200 C 221.970 285.200,222.400 284.843,222.516 284.400 C 222.638 283.934,223.062 283.600,223.530 283.600 C 224.757 283.600,225.600 283.175,225.600 282.557 C 225.600 282.251,225.960 282.000,226.400 282.000 C 226.933 282.000,227.200 281.733,227.200 281.200 C 227.200 280.613,227.467 280.400,228.204 280.400 C 228.756 280.400,229.516 280.040,229.893 279.600 C 230.270 279.160,230.812 278.800,231.099 278.800 C 231.385 278.800,231.790 278.353,231.997 277.808 C 232.237 277.176,232.586 276.896,232.956 277.039 C 233.276 277.161,233.912 276.888,234.369 276.431 C 234.826 275.974,235.476 275.600,235.813 275.600 C 236.149 275.600,236.522 275.346,236.641 275.037 C 236.760 274.727,237.385 274.255,238.029 273.988 C 238.673 273.721,239.200 273.238,239.200 272.914 C 239.200 272.590,239.560 272.231,240.000 272.116 C 240.440 272.001,240.800 271.675,240.800 271.391 C 240.800 271.084,241.103 270.954,241.549 271.071 C 241.994 271.187,242.695 270.888,243.279 270.333 C 245.007 268.689,245.994 268.000,246.617 268.000 C 246.951 268.000,247.887 267.280,248.696 266.400 C 249.623 265.392,250.520 264.800,251.121 264.800 C 251.738 264.800,252.149 264.518,252.284 264.000 C 252.400 263.557,252.830 263.200,253.247 263.200 C 253.733 263.200,254.000 262.917,254.000 262.400 C 254.000 261.755,254.267 261.600,255.373 261.600 C 256.395 261.600,256.811 261.395,257.000 260.800 C 257.140 260.360,257.512 260.000,257.827 260.000 C 258.142 260.000,258.400 259.640,258.400 259.200 C 258.400 258.537,258.667 258.400,259.953 258.400 C 261.195 258.400,261.551 258.231,261.726 257.560 C 261.856 257.063,262.132 256.834,262.400 257.000 C 262.666 257.164,262.941 256.948,263.064 256.478 C 263.203 255.946,263.740 255.588,264.658 255.416 C 265.419 255.273,266.139 254.903,266.258 254.593 C 266.377 254.284,266.817 253.921,267.237 253.788 C 267.657 253.655,268.000 253.288,268.000 252.973 C 268.000 252.602,268.427 252.400,269.213 252.400 C 269.948 252.400,270.520 252.152,270.667 251.769 C 270.800 251.423,271.353 250.970,271.895 250.764 C 272.534 250.521,272.801 250.179,272.653 249.794 C 272.478 249.337,272.754 249.200,273.850 249.200 C 274.938 249.200,275.324 249.011,275.484 248.400 C 275.600 247.957,276.030 247.600,276.447 247.600 C 276.933 247.600,277.200 247.317,277.200 246.800 C 277.200 246.148,277.467 246.000,278.637 246.000 C 279.738 246.000,280.124 245.813,280.284 245.200 C 280.400 244.757,280.830 244.400,281.247 244.400 C 281.733 244.400,282.000 244.117,282.000 243.600 C 282.000 242.951,282.267 242.800,283.413 242.800 C 284.283 242.800,284.911 242.575,285.050 242.215 C 285.173 241.894,285.641 241.514,286.090 241.371 C 286.713 241.174,286.779 241.035,286.372 240.782 C 286.011 240.559,286.458 240.296,287.751 239.971 C 289.253 239.592,289.625 239.340,289.483 238.795 C 289.349 238.285,289.492 238.151,290.023 238.290 C 290.467 238.406,290.946 238.156,291.268 237.639 C 291.557 237.178,291.976 236.800,292.200 236.800 C 292.921 236.800,293.718 235.158,293.233 234.673 C 292.995 234.435,292.797 233.691,292.794 233.020 C 292.786 231.429,292.431 230.924,291.085 230.586 C 290.477 230.433,289.793 229.960,289.565 229.535 C 289.283 229.008,288.904 228.840,288.376 229.008 C 287.874 229.167,287.600 229.066,287.600 228.723 C 287.600 228.063,286.104 227.089,285.584 227.410 C 285.373 227.540,285.200 227.277,285.200 226.824 C 285.200 226.276,284.941 226.000,284.427 226.000 C 284.002 226.000,283.540 225.640,283.400 225.200 C 283.211 224.605,282.795 224.400,281.773 224.400 C 280.667 224.400,280.400 224.245,280.400 223.600 C 280.400 223.083,280.133 222.800,279.647 222.800 C 279.230 222.800,278.800 222.443,278.684 222.000 C 278.526 221.396,278.138 221.200,277.104 221.200 C 275.439 221.200,275.049 221.522,275.697 222.363 C 275.997 222.753,275.840 222.705,275.293 222.238 C 274.280 221.373,274.186 221.156,274.891 221.300 C 275.160 221.355,275.443 220.995,275.518 220.500 C 275.623 219.812,275.460 219.600,274.828 219.600 C 274.373 219.600,274.000 219.349,274.000 219.043 C 274.000 218.431,273.159 218.000,271.967 218.000 C 271.545 218.000,271.200 217.733,271.200 217.408 C 271.200 217.082,270.763 216.706,270.229 216.572 C 269.695 216.437,269.167 216.091,269.056 215.802 C 268.945 215.512,268.302 215.154,267.627 215.006 C 266.945 214.856,266.400 214.479,266.400 214.156 C 266.400 213.836,266.085 213.456,265.700 213.310 C 265.315 213.164,264.762 212.810,264.471 212.522 C 264.181 212.235,263.501 212.000,262.962 212.000 C 262.283 212.000,261.863 211.692,261.600 211.000 C 261.391 210.450,260.965 210.000,260.653 210.000 C 260.341 210.000,259.982 209.730,259.855 209.400 C 259.713 209.028,259.104 208.800,258.257 208.800 C 257.200 208.800,256.902 208.641,256.944 208.100 C 256.980 207.657,256.670 207.353,256.100 207.272 C 255.522 207.190,255.200 206.868,255.200 206.372 C 255.200 205.756,254.917 205.600,253.800 205.600 C 252.667 205.600,252.400 205.448,252.400 204.800 C 252.400 204.276,252.133 204.000,251.627 204.000 C 251.202 204.000,250.740 203.640,250.600 203.200 C 250.438 202.690,249.995 202.400,249.376 202.400 C 248.840 202.400,248.184 202.043,247.907 201.600 C 247.632 201.160,247.091 200.800,246.704 200.800 C 246.317 200.800,246.000 200.533,246.000 200.208 C 246.000 199.882,245.505 199.496,244.900 199.350 C 244.295 199.205,243.089 198.391,242.221 197.543 C 241.353 196.694,240.400 196.000,240.104 196.000 C 239.809 196.000,239.187 195.646,238.723 195.214 C 238.259 194.781,237.739 194.514,237.568 194.620 C 237.397 194.725,237.143 194.449,237.002 194.006 C 236.861 193.563,236.405 193.200,235.987 193.200 C 235.570 193.200,235.035 192.840,234.800 192.400 C 234.565 191.960,234.020 191.600,233.589 191.600 C 233.159 191.600,232.582 191.240,232.307 190.800 C 232.032 190.360,231.534 190.000,231.200 190.000 C 230.866 190.000,230.368 189.640,230.093 189.200 C 229.818 188.760,229.415 188.400,229.197 188.400 C 228.978 188.400,228.440 188.040,228.000 187.600 C 227.560 187.160,226.840 186.800,226.400 186.800 C 225.948 186.800,225.600 186.533,225.600 186.187 C 225.600 185.851,225.299 185.459,224.931 185.318 C 224.562 185.177,223.932 184.732,223.531 184.331 C 223.129 183.929,222.452 183.600,222.027 183.600 C 221.602 183.600,221.138 183.235,220.997 182.789 C 220.855 182.344,220.527 182.028,220.267 182.087 C 220.008 182.147,219.392 181.792,218.898 181.298 C 218.404 180.804,217.640 180.400,217.200 180.400 C 216.756 180.400,216.400 180.133,216.400 179.800 C 216.400 179.470,216.227 179.200,216.016 179.200 C 215.804 179.200,215.268 178.810,214.824 178.333 C 214.340 177.814,213.532 177.467,212.808 177.467 C 211.903 177.467,211.600 177.283,211.600 176.733 C 211.600 176.282,211.311 176.000,210.847 176.000 C 210.430 176.000,210.000 175.643,209.884 175.200 C 209.733 174.622,209.338 174.400,208.464 174.400 C 207.605 174.400,207.180 174.168,207.000 173.600 C 206.773 172.883,206.395 172.800,203.376 172.800 C 200.440 172.800,199.943 172.903,199.507 173.600 M229.340 278.613 C 229.216 278.936,228.943 279.200,228.734 279.200 C 228.524 279.200,228.481 279.408,228.638 279.662 C 228.806 279.933,228.749 280.016,228.500 279.862 C 228.203 279.679,228.213 279.308,228.531 278.634 C 229.010 277.619,229.728 277.600,229.340 278.613 " stroke="none" fill="#b42464" fill-rule="evenodd"></path><path id="path2" d="M47.777 44.567 C 47.350 44.879,47.136 45.269,47.301 45.434 C 47.465 45.599,47.600 45.523,47.600 45.267 C 47.600 45.010,47.859 44.800,48.176 44.800 C 48.493 44.800,48.864 44.620,49.000 44.400 C 49.360 43.817,48.675 43.911,47.777 44.567 M178.600 58.400 C 178.464 58.620,178.623 58.800,178.953 58.800 C 179.283 58.800,179.664 58.620,179.800 58.400 C 179.936 58.180,179.777 58.000,179.447 58.000 C 179.117 58.000,178.736 58.180,178.600 58.400 M22.971 61.809 C 23.395 62.129,23.840 62.294,23.959 62.174 C 24.210 61.923,23.194 61.209,22.600 61.219 C 22.380 61.222,22.547 61.488,22.971 61.809 M377.015 78.776 C 376.899 78.963,377.068 79.217,377.389 79.341 C 377.711 79.464,378.069 79.412,378.185 79.224 C 378.301 79.037,378.132 78.783,377.811 78.659 C 377.489 78.536,377.131 78.588,377.015 78.776 M372.492 81.675 C 372.691 82.273,373.600 82.602,373.600 82.076 C 373.600 81.861,373.315 81.576,372.967 81.443 C 372.577 81.293,372.394 81.382,372.492 81.675 M360.273 90.383 C 359.730 90.932,359.669 91.196,360.034 91.421 C 360.336 91.607,360.421 91.557,360.256 91.291 C 360.109 91.052,360.351 90.743,360.794 90.602 C 361.237 90.461,361.600 90.178,361.600 89.973 C 361.600 89.406,361.080 89.566,360.273 90.383 M67.726 105.990 C 67.907 107.180,68.240 107.307,68.240 106.187 C 68.240 105.644,68.097 105.200,67.923 105.200 C 67.748 105.200,67.659 105.555,67.726 105.990 M337.600 105.576 C 337.600 106.239,338.184 106.334,338.716 105.758 C 339.144 105.294,339.093 105.200,338.416 105.200 C 337.967 105.200,337.600 105.369,337.600 105.576 M109.426 125.958 C 109.050 126.566,110.173 126.733,110.718 126.150 C 111.142 125.696,111.094 125.600,110.439 125.600 C 110.004 125.600,109.548 125.761,109.426 125.958 M228.531 278.634 C 228.213 279.308,228.203 279.679,228.500 279.862 C 228.749 280.016,228.806 279.933,228.638 279.662 C 228.481 279.408,228.524 279.200,228.734 279.200 C 229.216 279.200,229.662 278.086,229.276 277.847 C 229.117 277.749,228.782 278.103,228.531 278.634 " stroke="none" fill="#b4246c" fill-rule="evenodd"></path><path id="path3" d="" stroke="none" fill="#8c94e0" fill-rule="evenodd"></path><path id="path4" d="" stroke="none" fill="#b84864" fill-rule="evenodd"></path></g></svg>